<mxfile host="app.diagrams.net" modified="2023-12-04T18:49:57.122Z" agent="Mozilla/5.0 (Windows NT 10.0; Win64; x64) AppleWebKit/537.36 (KHTML, like Gecko) Chrome/119.0.0.0 Safari/537.36" etag="eoi8UUBpj6VuAzZOfPs2" version="22.1.5" type="github">
  <diagram name="Page-1" id="X1ogac0V-ha9F4GRenYI">
    <mxGraphModel dx="1687" dy="892" grid="1" gridSize="10" guides="1" tooltips="1" connect="1" arrows="1" fold="1" page="1" pageScale="1" pageWidth="827" pageHeight="1169" math="0" shadow="0">
      <root>
        <mxCell id="0" />
        <mxCell id="1" parent="0" />
        <mxCell id="1xBPSwPjP_c7115s2KEv-13" value="" style="shape=image;verticalLabelPosition=bottom;labelBackgroundColor=default;verticalAlign=top;aspect=fixed;imageAspect=0;image=data:image/png,iVBORw0KGgoAAAANSUhEUgAABS0AAALxCAYAAAC5LoOlAAAgAElEQVR4AezdTW6lS1Iw4FKLidVLQJYZABIsgAV4gNTSnfKzCCS2wB4QA8YMWAMjBgjEoDfgEUPoEROklhDifEp/Olx33bIjTjnjvG9kPpaO7LLD6YwnIs9Nx3W5vvzv//7vpepx8UKAAAECBAgQIECAAAECBAgQIECAAIEbBb5UDSzHul4IECBAgAABAgQIECBAgAABAgQIECBwq8CXWz9BPAECBAgQIECAAAECBAgQIECAAAECBCoFDC0rda1NgAABAgQIECBAgAABAgQIECBAgMDNAoaWN5P5BAIECBAgQIAAAQIECBAgQIAAAQIEKgUMLSt1rU2AAAECBAgQIECAAAECBAgQIECAwM0ChpY3k/kEAgQIECBAgAABAgQIECBAgAABAgQqBQwtK3WtTYAAAQIECBAgQIAAAQIECBAgQOArgV/96leXp6eny3jt5dsChpbfdvFeAgQIECBAgAABAgQIECBAgAABAiUChpYxq6FlbCSCAAECBAgQIECAAAECBAgQIECAwDQBQ8uY0tAyNhJBgAABAgQIECBAgAABAgQIECBAYJqAoWVMaWgZG4kgQIAAAQIECBAgQIAAAQIECBAgME3A0DKmNLSMjUQQIECAAAECBAgQIECAAAECBAgQmCZgaBlTGlrGRiIIECBAgAABAgQIECBAgAABAgQITBMwtIwpDS1jIxEECBAgQIAAAQIECBAgQIAAAQIEpgkYWsaUhpaxkQgCBAgQIECAAAECBAgQIECAAAEC0wQMLWNKQ8vYSAQBAgQIECBAgAABAgQIECBAgACBaQKGljGloWVsJIIAAQIECBAgQIAAAQIECBAgQIDANAFDy5jS0DI2EkGAAAECBAgQIECAAAECBAgQIEBgmoChZUxpaBkbiSBAgAABAgQIECBAgAABAgQIECAwTcDQMqY0tIyNRBAgQIAAAQIECBAgQIAAAQIECBCYIjAGli8vL5fHx8fX1+PP4+HlNwUMLX/Tw58IECBAgAABAgQIECBAgAABAgQIlAj8x3/8x+XLly8/eTw8PFz+/d//veRrdl3U0LJr5eybAAECBAgQIECAAAECBAgQIECglcB//dd/XX7nd37nJ0PL3//937/8+te/bpVL9WYNLauFrU+AAAECBAgQIECAAAECBAgQIEDgcrn893//9+WP/uiPfjK0/LM/+zM+XwkYWn4F4o8ECBAgQIAAAQIECBAgQIAAAQIEqgT+/M///CdDy7/+67+u+nJt1zW0bFs6GydAgAABAgQIECBAgAABAgQIEOgm8Fd/9Vc/GVr+y7/8S7c0yvdraFlO7AsQIECAAAECBAgQIECAAAECBAgQ+P8Cf//3f/8bQ8unpyf/CM83msPQ8hso3kWAAAECBAgQIECAAAECBAgQIECgQuBf//Vff2No+Qd/8Af+EZ5vQBtafgPFuwgQIECAAAECBAgQIECAAAECBAhUCPzbv/3bbwwt/SM831Y2tPy2i/cSIECAAAECBAgQIECAAAECBAgQmC7wn//5n5fxV8K/fPny+vCP8Hyb2NDy2y7eS4AAAQIECBAgQIAAAQIECBAgQGC6wK9//evLH/7hH/7f0NI/wvNtYkPLb7t4LwECBAgQIECAAAECBAgQIECAAIHpAv/zP/9z+eM//uPXoaV/hOd9XkPL9218hAABAgQIECBAgAABAgQIECBAgMB0gb/4i794HVr6R3jepzW0fN/GRwgQIECAAAECBAgQIECAAAECBAhMF/ibv/mb16Hln/7pn05fe5UFDS1XqaQ8CBAgQIAAAQIECBAgQKBM4Fe/+tXFYy+DsmayMIHL5fIP//APr0PLv/u7v+PxjoCh5Tsw3k2AAAECBAgQIECAAAECBIbAGFY+PDxcHh8fX//F3/E76DzWNXh+fn6t96j7Ry+G2HsNsWfX+5/+6Z9eh5b/+I//GP4PkY/6cOWPGVquXF25ESBAgAABAgQIECBAgMCnBcawYgyyXl5ewuHC7MGG9e4/GBt1/vLly2utP2oeg+t1B9f3qO2f/MmfvPbZeB19vY/6cOWPGVquXF25ESBAgAABAgQIECBAgMCnBcbgcAwVxmsv6wtk622gfP+B8krmYzg+fno78z9D1j91387Q0PLbLt5LgAABAgQIECBAgAABAgReBbJDLFxrCKj3GnU8exb6LK6QoWVsJIIAAQIECBAgQIAAAQIENhYwXNir+Oq9V72PylafxfKGlrGRCAIECBAgQIAAAQIECBDYWMBwYa/iq/de9T4qW30WyxtaxkYiCBAgQIAAAQIECBAgQGBjAcOFvYqv3nvV+6hs9Vksb2gZG4kgQIAAAQIECBAgQIAAgY0FDBf2Kr5671Xvo7LVZ7G8oWVsJIIAAQIECBAgQIAAAQIENhYwXNir+Oq9V72PylafxfKGlrGRCAIECBAgQIAAAQIECBDYWMBwYa/iq/de9T4qW30WyxtaxkYiCBAgQIAAAQIECBAgQGBjAcOFvYqv3nvV+6hs9Vksb2gZG4kgQIAAAQIECBAgQIAAgY0FDBf2Kr5671Xvo7LVZ7G8oWVsJIIAAQIECBAgQIAAAQIENhYwXNir+Oq9V72PylafxfKGlrGRCAIECBAgQIAAAQIECBDYWMBwYa/iq/de9T4qW30WyxtaxkYiCBAgQIAAAQIECBAgQGBjAcOFvYqv3nvV+6hs9Vksb2gZG4kgQIAAAQIECBAgQIAAgY0FDBf2Kr5671Xvo7J9eXm5PDw8XMZrL98WMLT8tov3EiBAgAABAgQIECBAgACBVwFDrL0aQb33qvdR2eqzWN7QMjYSQYAAAQIECBAgQIAAAQIbCxgu7FV89d6r3kdlq89ieUPL2EgEAQIECBAgQIAAAQIECGwsYLiwV/HVe696H5WtPovlDS1jIxEECBAgQIAAAQIECBAgsLGA4cJexVfvvep9VLb6LJY3tIyNRBAgQIAAAQIECBAgQIDAxgKGC3sVX733qvdR2eqzWN7QMjYSQYAAAQIECBAgQIAAAQIbCxgu7FV89d6r3kdlq89ieUPL2EgEAQIECBAgQIAAAQIECGwsYLiwV/HVe696H5WtPovlDS1jIxEECBAgQIAAAQIECBAgsLGA4cJexVfvvep9VLb6LJY3tIyNRBAgQIAAAQIECBAgQIDAxgKGC3sVX733qvdR2eqzWN7QMjYSQYAAAQIECBAgQIAAAQIbCxgu7FV89d6r3kdlq89ieUPL2EgEAQIECBAgQIAAAQIECGwsYLiwV/HVe696H5WtPovlDS1jIxEECBAgQIAAAQIECBAgsLGA4cJexVfvvep9VLb6LJY3tIyNRBAgQIAAAQIECBAgQIDAxgKGC3sVX733qvdR2eqzWN7QMjYSQYAAAQIECBAgQIAAAQIbCxgu7FV89d6r3kdlq89ieUPL2EgEAQIECBAgQIAAAQIECGwsYLiwV/HVe696H5WtPovlDS1jIxEECBAgQIAAAQIECBAgsLGA4cJexVfvvep9VLb6LJY3tIyNRBAgQIAAAQIECBAgQIDAxgKGC3sVX733qvdR2eqzWN7QMjYSQYAAAQIECBAgQIAAAQIbCxgu7FV89d6r3kdlq89ieUPL2EgEAQIECBAgQIAAAQIECGwsYLiwV/HVe696H5WtPovlDS1jIxEECBAgQIAAAQIECBAgsLGA4cJexVfvvep9VLb6LJY3tIyNRBAgQIAAAQIECBAgQIDAxgKGC3sVX733qvdR2eqzWN7QMjYSQYAAAQIECBAgQIAAAQIbCxgu7FV89d6r3kdlq89ieUPL2EgEAQIECBAgQIAAAQIECGwsYLiwV/HVe696H5WtPovlDS1jIxEECBAgQIAAAQIECBAgsLGA4cJexVfvvep9VLb6LJY3tIyNRBAgQIAAAQIECBAgQIDAxgKGC3sVX733qvdR2eqzWN7QMjYSQYAAAQIECBAgQIAAAQIbCxgu7FV89d6r3kdlq89ieUPL2EgEAQIECBAgQIAAAQIECGwsYLiwV/HVe696H5WtPovlDS1jIxEECBAgQIAAAQIECBAgsLGA4cJexVfvvep9VLb6LJY3tIyNRBAgQIAAAQIECBAgQIDAxgKGC3sVX733qvdR2eqzWN7QMjYSQYAAAQIECBAgQIAAAQIbCxgu7FV89d6r3kdlq89ieUPL2EgEAQIECBAgQIAAAQIECGwsYLiwV/HVe696H5WtPovlDS1jIxEECBAgQIAAAQIECBAgsLGA4cJexVfvvep9VLb6LJY3tIyNRBAgQIAAAQIECBAgQIDAxgKGC3sVX733qvdR2eqzWN7QMjYSQYAAAQIECBAgQIAAAQIbCxgu7FV89d6r3kdlq89ieUPL2EgEAQIECBAgQIAAAQIECGwsYLiwV/HVe696H5WtPovlDS1jIxEECBAgQIAAAQIECBAgsLGA4cJexVfvvep9VLb6LJY3tIyNRBAgQIAAAQIECBAgQIDAxgKGC3sVX733qvdR2eqzWN7QMjYSQYAAAQIECBAgQIAAAQIbCxgu7FV89d6r3kdlq89ieUPL2EgEAQIECBAgQIAAAQIECGwsYLiwV/HVe696H5WtPovlDS1jIxEECBAgQIAAAQIECBAgsLGA4cJexVfvvep9VLb6LJY3tIyNRBAgQIAAAQIECBAgQIDAxgKGC3sVX733qvdR2eqzWN7QMjYSQYAAAQIECBAgQIAAAQIbCxgu7FV89d6r3kdlq89ieUPL2EgEAQIECBAgQIAAAQIECGwsYLiwV/HVe696H5WtPovlDS1jIxEECBAgQIAAAQIECBAgsLGA4cJexVfvvep9VLb6LJY3tIyNRBAgQIAAAQIECBAgQIDAxgKGC3sVX733qvdR2eqzWL7d0HIU1YOBHtADekAP6AE9oAfO3QPxNVQEAQIE+giM/+Y8PT29fi/aZ9d2+r0C6v29cj7vFgF9Fmu1GlqOgj48PFyen59f/4Mx/qPhwUAP6AE9oAf0gB7QA+fpgXFPG/e1cW/zQoAAgVUEDBdWqWQuD/XOOYn6nIA+i/3aDS0fHx8vLy8vftrST5zqAT2gB/SAHtADeuCEPTDuaeO+ZmgZX8RFECDQR8BwoU+tZuxUvWcoWiMS0GeR0OXSbmg5fpLCJTgurAgCBAgQIECAwBECLuBHqPuaBAhUC3huqxY+1/rqfa56rLobfRZX1tAyNhJBgAABAgQIECCQFHABT0IJI0CglYDntlbl+vRm1fvThBZICOizGMnQMjYSQYAAAQIECBAgkBRwAU9CCSNAoJWA57ZW5fr0ZtX704QWSAjosxjJ0DI2EkGAAAECBAgQIJAUcAFPQgkjQKCVgOe2VuX69GbV+9OEFkgI6LMYydAyNhJBgAABAgQIECCQFHABT0IJI0CglYDntlbl+vRm1fvThBZICOizGMnQMjYSQYAAAQIECBAgkBRwAU9CCSNAoJWA57ZW5fr0ZtX704QWSAjosxjJ0DI2EkGAAAECBAgQIJAUcAFPQgkjQKCVgOe2VuX69GbV+9OEFkgI6LMYydAyNhJBgAABAgQIECCQFHABT0IJI0CglYDntlbl+vRm1fvThBZICOizGMnQMjYSQYAAAQIECBAgkBRwAU9CCSNAoJWA57ZW5fr0ZtX704QWSAjosxjJ0DI2EkGAAAECBAgQIJAUcAFPQgkjQKCVgOe2VuX69GbV+9OEFkgI6LMYydAyNhJBgAABAgQIECCQFHABT0IJI0CglYDntlbl+vRm1fvThBZICOizGMnQMjYSQYAAAQIECBAgkBRwAU9CCSNAoJWA57ZW5fr0ZtX704QWSAjosxjJ0DI2EkGAAAECBAgQIJAUcAFPQgkjQKCVgOe2VuX69GbV+9OEFkgI6LMYydAyNhJBgAABAgQIECCQFHABT0IJI0CglYDntlbl+vRm1fvThBZICOizGMnQMjYSQYAAAQIECBAgkBRwAU9CCSNAoJWA57ZW5fr0ZtX704QWSAjosxjJ0DI2EkGAAAECBAgQIJAUcAFPQgkjQKCVgOe2VuX69GbV+9OEFkgI6LMYydAyNhJBgAABAgQIECCQFHABT0IJI0CglYDntlbl+vRm1fvThBZICOizGMnQMjYSQYAAAQIECBAgkBRwAU9CCSNAoJWA57ZW5fr0ZtX704QWSAjosxjJ0DI2EkGAAAECBAgQIJAUcAFPQgkjQKCVwHhue35+vry8vFzG2x5rG4w6j3qPOnshUCUw+uvp6UmffQBsaPkBjg8RIECAAAECBAjcJuACfpuXaAIEegiM57aHh4fL4+Pj65BhDBo81jUYdR71NrTscT677tKdKa6coWVsJIIAAQIECBAgQCAp4AKehBJGgEA7gfH85rGXQbsmteFWAu5McbkMLWMjEQQIECBAgAABAkkBF/AklDACBAgQIEBgawF3prj8hpaxkQgCBAgQIECAAIGkgAt4EkoYAQIECBAgsLWAO1NcfkPL2EgEAQIECBAgQIBAUsAFPAkljAABAgQIENhawJ0pLr+hZWwkggABAgQIECBAICngAp6EEkaAAAECBAhsLeDOFJff0DI2EkGAAAECBAgQIJAUcAFPQgkjQIAAAQIEthZwZ4rLb2gZG4kgQIAAAQIECBBICriAJ6GEESBAgAABAlsLuDPF5Te0jI1EECBAgAABAgQIJAVcwJNQwggQIECAAIGtBdyZ4vIbWsZGIggQIECAAAECBJICLuBJKGEECBAgQIDA1gLuTHH5DS1jIxEECBAgQIAAAQJJARfwJJQwAgQIECBAYGsBd6a4/IaWsZEIAgQIECBAgACBpIALeBJKGAECBAgQILC1gDtTXH5Dy9hIBAECBAgQIECAQFLABTwJJYwAAQIECBDYWsCdKS6/oWVsJIIAAQIECBAgQCAp4AKehBJGgAABAgQIbC3gzhSX39AyNhJBgAABAgQIECCQFNj5Aj5yzz6SnMIIECBAgACBRQV2vjNlS2pomZUSR4AAAQIECBAgEArsegEfeT88PFweHx8vT09P7z6en59f40a8FwIECBAgQGBfgV3vTLdU3NDyFi2xBAgQIECAAAECHwrsegEfeY+B5MvLy4c/bTk+PgabhpYftpEPEiBAgACB5QV2vTPdUlhDy1u0xBIgQIAAAQIECHwosOsFPJt3Nu5DZB8kQIAAAQIE2gu4E8QlNLSMjUQQIECAAAECBAgkBXa9gGfzzsYluYURIECAAAECTQXcCeLCGVrGRiIIECBAgAABAgSSArtewLN5Z+OS3MIIECBAgACBpgLuBHHhDC1jIxEECBAgQIAAAQJJgV0v4Nm8s3FJbmEECBAgQIBAUwF3grhwhpaxkQgCBAgQIECAAIGkwK4X8Gze2bgktzACBAgQIECgqYA7QVw4Q8vYSAQBAgQIECBAgEBSYNcLeDbvbFySWxgBAgQIECDQVMCdIC6coWVsJIIAAQIECBAgQCApsOsFPJt3Ni7JLYwAAQIECBBoKuBOEBfO0DI2EkGAAAECBAgQIJAU2PUCns07G5fkFkbg7gKjhz0Y6IE1e+DuTyibf0F3grgBDC1jIxEECBAgQIAAAQJJgV0v4CPv5+fny8vLy4cDnfHxETfivRDoJjD69uHh4bWHn56eLh4M9MAaPTD+uzTOtv823fdZeXiPM8T9fXdDy/dtfIQAAQIECBAgQOBGgV0v4CPv8Q3f4+Pjh4Oc8XHfGN7YVMJPIzD6fPRwNJwfcR4M9ECfHhhnepztUTMv9xMY3oaWH3sbWn7s46MECBAgQIAAAQI3COx8Ab/lG/QbSIUSOI3Azuf7NEWwEQIFAs52AWpiSe4xkqFlbCSCAAECBAgQIEAgKeACnoQSRqChgPPdsGi2TCAh4GwnkApCuMeohpaxkQgCBAgQIECAAIGkgAt4EkoYgYYCznfDotkygYSAs51AKgjhHqMaWsZGIggQIECAAAECBJICLuBJKGEEGgo43w2LZssEEgLOdgKpIIR7jGpoGRuJIECAAAECBAgQSAq4gCehhBFoKOB8NyyaLRNICDjbCaSCEO4xqqFlbCSCAAECBAgQIEAgKeACnoQSRqChgPPdsGi2TCAh4GwnkApCuMeohpaxkQgCBAgQIECAAIGkgAt4EkoYgYYCznfDotkygYSAs51AKgjhHqMaWsZGIggQIECAAAECBJICLuBJKGEEGgo43w2LZssEEgLOdgKpIIR7jGpoGRuJIECAAAECBAgQSAq4gCehhBFoKOB8NyyaLRNICDjbCaSCEO4xqqFlbCSCAAECBAgQIEAgKeACnoQSRqChgPPdsGi2TCAh4GwnkApCuMeohpaxkQgCBAgQIECAAIGkgAt4EkoYgYYCznfDotkygYSAs51AKgjhHqMaWsZGIggQIECAAAECBJICLuBJKGEEGgo43w2LZssEEgLOdgKpIIR7jGpoGRuJIECAAAECBAgQSAq4gCehhBFoKOB8NyyaLRNICDjbCaSCEO4xqqFlbCSCAAECBAgQIEAgKeACnoQSRqChgPPdsGi2TCAh4GwnkApCuMeohpaxkQgCBAgQIECAAIGkgAt4EkoYgYYCznfDotkygYSAs51AKgjhHqMaWsZGIggQIECAAAECBJICLuBJKGEEGgo43w2LZssEEgLOdgKpIIR7jGpoGRuJIECAAAECBAgQSAq4gCehhBFoKOB8NyyaLRNICDjbCaSCEO4xqqFlbCSCAAECBAgQIEAgKeACnoQSRqChgPPdsGi2TCAh4GwnkApCuMeohpaxkQgCBAgQIECAAIGkgAt4EkoYgYYCznfDotkygYSAs51AKgjhHqMaWsZGIggQIECAAAECBJICLuBJKGEEGgo43w2LZssEEgLOdgKpIIR7jGpoGRuJIECAAAECBAgQSAq4gCehhBFoKOB8NyyaLRNICDjbCaSCEO4xqqFlbCSCAAECBAgQIEAgKeACnoQSRqChgPPdsGi2TCAh4GwnkApCuMeohpaxkQgCBAgQIECAAIGkgAt4EkoYgYYCznfDotkygYSAs51AKgjhHqMaWsZGIggQIECAAAECBJICLuBJKGEEGgo43w2LZssEEgLOdgKpIIR7jGpoGRuJIECAAAECBAgQSAq4gCehhBFoKOB8NyyaLRNICDjbCaSCEO4xqqFlbCSCAAECBAgQIEAgKeACnoQSRqChgPPdsGi2TCAh4GwnkApCuMeohpaxkQgCBAgQIECAAIGkgAt4EkoYgYYCznfDotkygYSAs51AKgjhHqMaWsZGIggQIECAAAECBJICLuBJKGEEGgo43w2LZssEEgLOdgKpIIR7jGpoGRuJIECAAAECBAgQSAq4gCehhBFoKOB8NyyaLRNICDjbCaSCEO4xqqFlbCSCAAECBAgQIEAgKeACnoQSRqChgPPdsGi2TCAh4GwnkApCuMeohpaxkQgCBAgQIECAAIGkgAt4EkoYgYYCznfDotkygYSAs51AKgjhHqMaWsZGIggQIECAAAECBJICLuBJKGEEGgo43w2LZssEEgLOdgKpIIR7jGpoGRuJIECAAAECBAgQSAq4gCehhBFoKOB8NyyaLRNICDjbCaSCEO4xqqFlbCSCAAECBAgQIEAgKeACnoQSRqChgPPdsGi2TCAh4GwnkApCuMeo7YaWv/3bv3355S9/eXl5efFgoAf0gB7QA3pAD+iBk/XAuKf98MMPl3ERn/Uy1rrlMevrWocAgd8U8A32b3r4E4FVBJztYyrJPXZvNbQcg8qf/exnl9/7vd+7PDw8eDDQA3pAD+gBPaAH9MDJeuDnP//5631t3NtmvIwL/bj3PT4+Xp6enj58PD8/v8aOz/FCgMB8Ad9gzze1IoEzCDjbx1SBe+zeamg5Cjr+z72ftPRTpn7SVg/oAT2gB/SAHjhnD8z+Sctx/xvDyFHv8fZHjxEzhpsjxgsBAvMFxtka//PAGZtva0UCRwo428foc4/d2w0t/UcyLqoIAgQIECBAgMBRArMv4Lesd0vsUT6+LoHOAs5Y5+rZO4H3BZzt920qP8I91jW0jI1EECBAgAABAgQIJAVmX8BvWe+W2GQ6wggQeCPgjL3B8CaBhQSc7WOKyT12N7SMjUQQIECAAAECBAgkBWZfwG9Z75bYZDrCCBB4I+CMvcHwJoGFBJztY4rJPXY3tIyNRBAgQIAAAQIECCQFZl/Ab1nvlthkOsIIEHgj4Iy9wfAmgYUEnO1jisk9dje0jI1EECBAgAABAgQIJAVmX8BvWe+W2GQ6wggQeCPgjL3B8CaBhQSc7WOKyT12N7SMjUQQIECAAAECBAgkBWZfwG9Z75bYZDrCCBB4I+CMvcHwJoGFBJztY4rJPXY3tIyNRBAgQIAAAQIECCQFZl/Ab1nvlthkOsIIEHgj4Iy9wfAmgYUEnO1jisk9dje0jI1EECBAgAABAgQIJAVmX8DHes/Pz5eXl5fLePujx4gZsSPGCwEC8wXG2Xp6enLG5tNakcChAs72MfzcY3dDy9hIBAECBAgQIECAQFJg9gV8rPfw8HB5fHx8HZaMgcl7jxEzYsfneCFAYL7A7PM9f4dWJEDgewSc7e9R+/zncI8NDS1jIxEECBAgQIAAAQJJgYoL+Fjzlkdyq8IIELhRoOJ837gF4QQIFAg42wWoiSW5x0iGlrGRCAIECBAgQIAAgaSAC3gSShiBhgLOd8Oi2TKBhICznUAqCOEeoxpaxkYiCBAgQIAAAQIEkgIu4EkoYQQaCjjfDYtmywQSAs52AqkghHuMamgZG4kgQIAAAQIECBBICriAJ6GEEWgo4Hw3LJotE0gIONsJpIIQ7jGqoWVsJIIAAQIECBAgQCAp4AKehBJGoKGA892waLZMICHgbCeQCkK4x6iGlrGRCAIECBAgQIAAgaSAC3gSShiBhgLOd8Oi2TKBhICznUAqCOEeoxpaxkYiCBAgQIAAAT+3kKkAACAASURBVAIEkgIu4EkoYQQaCjjfDYtmywQSAs52AqkghHuMamgZG4kgQIAAAQIECBBICriAJ6GEEWgo4Hw3LJotE0gIONsJpIIQ7jGqoWVsJIIAAQIECBAgQCAp4AKehBJGoKGA892waLZMICHgbCeQCkK4x6iGlrGRCAIECBAgQIAAgaSAC3gSShiBhgLOd8Oi2TKBhICznUAqCOEeoxpaxkYiCBAgQIAAAQIEkgIu4EkoYQQaCjjfDYtmywQSAs52AqkghHuMamgZG4kgQIAAAQIECBBICriAJ6GEEWgo4Hw3LJotE0gIONsJpIIQ7jGqoWVsJIIAAQIECBAgQCAp4AKehBJGoKGA892waLZMICHgbCeQCkK4x6iGlrGRCAIECBAgQIAAgaSAC3gSShiBhgLOd8Oi2TKBhICznUAqCOEeoxpaxkYiCBAgQIAAAQIEkgIu4EkoYQQaCjjfDYtmywQSAs52AqkghHuMamgZG4kgQIAAAQIECBBICriAJ6GEEWgo4Hw3LJotE0gIONsJpIIQ7jGqoWVsJIIAAQIECBAgQCAp4AKehBJGoKGA892waLZMICHgbCeQCkK4x6iGlrGRCAIECBAgQIAAgaSAC3gSShiBhgLOd8Oi2TKBhICznUAqCOEeoxpaxkYiCBAgQIAAAQIEkgIu4EkoYQQaCjjfDYtmywQSAs52AqkghHuMamgZG4kgQIAAAQIECBBICriAJ6GEEWgo4Hw3LJotE0gIONsJpIIQ7jGqoWVsJIIAAQIECBAgQCAp4AKehBJGoKGA892waLZMICHgbCeQCkK4x6iGlrGRCAIECBAgQIAAgaSAC3gSShiBhgLOd8Oi2TKBhICznUAqCOEeoxpaxkYiCBAgQIAAAQIEkgIu4EkoYQQaCjjfDYtmywQSAs52AqkghHuMamgZG4kgQIAAAQIECBBICriAJ6GEEWgo4Hw3LJotE0gIONsJpIIQ7jGqoWVsJIIAAQIECBAgQCAp4AKehBJGoKGA892waLZMICHgbCeQCkK4x6iGlrGRCAIECBAgQIAAgaSAC3gSShiBhgLOd8Oi2TKBhICznUAqCOEeoxpaxkYiCBAgQIAAAQIEkgIu4EkoYQQaCjjfDYtmywQSAs52AqkghHuMamgZG4kgQIAAAQIECBBICriAJ6GEEWgo4Hw3LJotE0gIONsJpIIQ7jGqoWVsJIIAAQIECBAgQCAp4AKehBJGoKGA892waLZMICHgbCeQCkK4x6iGlrGRCAIECBAgQIAAgaSAC3gSShiBhgLOd8Oi2TKBhICznUAqCOEeoxpaxkYiCBAgQIAAAQIEkgIu4EkoYQQaCjjfDYtmywQSAs52AqkghHuMamgZG4kgQIAAAQIECBBICriAJ6GEEWgo4Hw3LJotE0gIONsJpIIQ7jGqoWVsJIIAAQIECBAgQCAp4AKehBJGoKGA892waLZMICHgbCeQCkK4x6iGlrGRCAIECBAgQIAAgaSAC3gSShiBhgLOd8Oi2TKBhICznUAqCOEeoxpaxkYiCBAgQIAAAQIEkgIu4EkoYQQaCjjfDYtmywQSAs52AqkghHuMamgZG4kgQIAAAQIECBBICriAJ6GEEWgo4Hw3LJotE0gIONsJpIIQ7jGqoWVsJIIAAQIECBAgQCAp4AKehBJGoKGA892waLZMICHgbCeQCkK4x6iGlrGRCAIECBAgQIAAgaSAC3gSShiBhgLOd8Oi2TKBhICznUAqCOEeoxpaxkYiCBAgQIAAAQIEkgIu4EkoYQQaCjjfDYtmywQSAs52AqkghHuMamgZG4kgQIAAAQIECBBICriAJ6GEEWgo4Hw3LJotE0gIONsJpIIQ7jGqoWVsJIIAAQIECBAgQCAp4AKehBJGoKGA892waLZMICHgbCeQCkK4x6iGlrGRCAIECBAgQIAAgaSAC3gSShiBhgLOd8Oi2TKBhICznUAqCOEeoxpaxkYiCBAgQIAAAQIEkgIu4EkoYQQaCjjfDYtmywQSAs52AqkghHuMamgZG4kgQIAAAQIECBBICriAJ6GEEWgo4Hw3LJotE0gIONsJpIIQ7jGqoWVsJIIAAQIECBAgQCAp4AKehBJGoKGA892waLZMICHgbCeQCkK4x6iGlrGRCAIECBAgQIAAgaSAC3gSShiBhgLOd8Oi2TKBhICznUAqCOEeoxpaxkYiCBAgQIAAAQIEkgIu4EkoYQQaCjjfDYtmywQSAs52AqkghHuMamgZG4kgQIAAAQIECBBICriAJ6GEEWgo4Hw3LJotE0gIONsJpIIQ7jGqoWVsJIIAAQIECBAgQCAp4AKehBJGoKGA892waLZMICHgbCeQCkK4x6iGlrGRCAIECBAgQIAAgaSAC3gSShiBhgLOd8Oi2TKBhICznUAqCOEeoxpaxkYiCBAgQIAAAQIEkgIu4EkoYQQaCjjfDYtmywQSAs52AqkghHuMamgZG4kgQIAAAQIECBBICriAJ6GEEWgo4Hw3LJotE0gIONsJpIIQ7jGqoWVsJIIAAQIECBAgQCAp4AKehBJGoKGA892waLZMICHgbCeQCkK4x6iGlrGRCAIECBAgQIAAgaSAC3gSShiBhgLOd8Oi2TKBhICznUAqCOEeoxpaxkYiCBAgQIAAAQIEkgIu4EkoYQQaCjjfDYtmywQSAs52AqkghHuMamgZG4kgQIAAAQIECBBICriAJ6GEEWgo4Hw3LJotE0gIONsJpIIQ7jGqoWVsJIIAAQIECBAgQCAp4AKehBJGoKGA892waLZMICHgbCeQCkK4x6iGlrGRCAIECBAgQIAAgaSAC3gSShiBhgLOd8Oi2TKBhICznUAqCOEeoxpaxkYiCBAgQIAAAQIEkgIu4EkoYQQaCjjfDYtmywQSAs52AqkghHuMamgZG4kgQIAAAQIECBBICriAJ6GEEWgo4Hw3LJotE0gIONsJpIIQ7jGqoWVsJIIAAQIECBAgQCAp4AKehBJGoKGA892waLZMICHgbCeQCkK4x6iGlrGRCAIECBAgQIAAgaSAC3gSShiBhgLOd8Oi2TKBhICznUAqCOEeoxpaxkYiCBAgQIAAAQIEkgIu4EkoYQQaCjjfDYtmywQSAs52AqkghHuMamgZG4kgQIAAAQIECBBICriAJ6GEEWgo4Hw3LJotE0gIONsJpIIQ7jGqoWVsJIIAAQIECBAgQCAp4AKehBJGoKGA892waLZMICHgbCeQCkK4x6iGlrGRCAIECBAgQIAAgaSAC3gSShiBhgLOd8Oi2TKBhICznUAqCOEeoxpaxkYiCBAgQIAAAQIEkgIu4EkoYQQaCjjfDYtmywQSAs52AqkghHuMamgZG4kgQIAAAQIECBBICriAJ6GEEWgo4Hw3LJotE0gIONsJpIIQ7jGqoWVsJIIAAQIECBAgQCAp4AKehBJGoKGA892waLZMICHgbCeQCkK4x6iGlrGRCAIECBAgQIAAgaSAC3gSShiBhgLOd8Oi2TKBhICznUAqCOEeo7YbWv7www+XX/7yl5eXlxcPBnpAD+gBPaAH9IAeOFkPjHvauK+Ni7gXAgTWEvAN9lr1lA2Bq4CzfZW472vusXeroeUYVP7sZz+7/PznP788PDx4MNADekAP6AE9oAf0wMl6YNzTxn1t3Nu8ECCwloBvsNeqp2wIXAWc7avEfV9zj71bDS1HQf2kpZ8w9VO2ekAP6AE9oAf0wHl7wE9axhdwEQS6CvgGu2vl7JvAxwLO9sc+VR/lHsu2G1o+PT3560ZxXUUQIECAAAECBA4RcAE/hN0XJXAXAef7Lsy+CIG7Czjbdyd//YLcY3dDy9hIBAECBAgQIECAQFLABTwJJYxAQwHnu2HRbJlAQsDZTiAVhHCPUQ0tYyMRBAgQIECAAAECSQEX8CSUMAINBZzvhkWzZQIJAWc7gVQQwj1GNbSMjUQQIECAAAECBAgkBVzAk1DCCDQUcL4bFs2WCSQEnO0EUkEI9xjV0DI2EkGAAAECBAgQIJAUcAFPQgkj0FDA+W5YNFsmkBBwthNIBSHcY1RDy9hIBAECBAgQIECAQFLABTwJJYxAQwHnu2HRbJlAQsDZTiAVhHCPUQ0tYyMRBAgQIECAAAECSQEX8CSUMAINBZzvhkWzZQIJAWc7gVQQwj1GNbSMjUQQIECAAAECBAgkBVzAk1DCCDQUcL4bFs2WCSQEnO0EUkEI9xjV0DI2EkGAAAECBAgQIJAUcAFPQgkj0FDA+W5YNFsmkBBwthNIBSHcY1RDy9hIBAECBAgQIECAQFLABTwJJYxAQwHnu2HRbJlAQsDZTiAVhHCPUQ0tYyMRBAgQIECAAAECSQEX8CSUMAINBZzvhkWzZQIJAWc7gVQQwj1GNbSMjUQQIECAAAECBAgkBVzAk1DCCDQUcL4bFs2WCSQEnO0EUkEI9xjV0DI2EkGAAAECBAgQIJAUcAFPQgkj0FDA+W5YNFsmkBBwthNIBSHcY1RDy9hIBAECBAgQIECAQFLABTwJJYxAQwHnu2HRbJlAQsDZTiAVhHCPUQ0tYyMRBAgQIECAAAECSQEX8CSUMAINBZzvhkWzZQIJAWc7gVQQwj1GNbSMjUQQIECAAAECBAgkBVzAk1DCCDQUcL4bFs2WCSQEnO0EUkEI9xjV0DI2EkGAAAECBAgQIJAUcAFPQgkj0FDA+W5YNFsmkBBwthNIBSHcY1RDy9hIBAECBAgQIECAQFLABTwJJYxAQwHnu2HRbJlAQsDZTiAVhHCPUQ0tYyMRBAgQIECAAAECSQEX8CSUMAINBZzvhkWzZQIJAWc7gVQQwj1GNbSMjUQQIECAAAECBAgkBVzAk1DCCDQUcL4bFs2WCSQEnO0EUkEI9xjV0DI2EkGAAAECBAgQIJAUcAFPQgkj0FDA+W5YNFsmkBBwthNIBSHcY1RDy9hIBAECBAgQIECAQFLABTwJJYxAQwHnu2HRbJlAQsDZTiAVhHCPUQ0tYyMRBAgQIECAAAECSQEX8CSUMAINBZzvhkWzZQIJAWc7gVQQwj1GNbSMjUQQIECAAAECBAgkBVzAk1DCCDQUcL4bFs2WCSQEnO0EUkEI9xjV0DI2EkGAAAECBAgQIJAUcAFPQgkj0FDA+W5YNFsmkBBwthNIBSHcY1RDy9hIBAECBAgQIECAQFLABTwJJYxAQwHnu2HRbJlAQsDZTiAVhHCPUQ0tYyMRBAgQIECAAAECSQEX8CSUMAINBZzvhkWzZQIJAWc7gVQQwj1GNbSMjUQQIECAAAECBAgkBVzAk1DCCDQUcL4bFs2WCSQEnO0EUkEI9xjV0DI2EkGAAAECBAgQIJAUcAFPQgkj0FDA+W5YNFsmkBBwthNIBSHcY1RDy9hIBAECBAgQIECAQFLABTwJJYxAQwHnu2HRbJlAQsDZTiAVhHCPUQ0tYyMRBAgQIECAAAECSQEX8CSUMAINBZzvhkWzZQIJAWc7gVQQwj1GNbSMjUQQIECAAAECBAgkBVzAk1DCCDQUcL4bFs2WCSQEnO0EUkEI9xjV0DI2EkGAAAECBAgQIJAUcAFPQgkj0FDA+W5YNFsmkBBwthNIBSHcY1RDy9hIBAECBAgQIECAQFLABTwJJYxAQwHnu2HRbJlAQsDZTiAVhHCPUQ0tYyMRBAgQIECAAAECSQEX8CSUMAINBZzvhkWzZQIJAWc7gVQQwj1GNbSMjUQQIECAAAECBAgkBVzAk1DCCDQUcL4bFs2WCSQEnO0EUkEI9xjV0DI2EkGAAAECBAgQIJAUcAFPQgkj0FDA+W5YNFsmkBBwthNIBSHcY1RDy9hIBAECBAgQIECAQFLABTwJJYxAQwHnu2HRbJlAQsDZTiAVhHCPUQ0tYyMRBAgQIECAAAECSQEX8CSUMAINBZzvhkWzZQIJAWc7gVQQwj1GNbSMjUQQIECAAAECBAgkBVzAk1DCCDQUcL4bFs2WCSQEnO0EUkEI9xjV0DI2EkGAAAECBAgQIJAUcAFPQgkj0FDA+W5YNFsmkBBwthNIBSHcY1RDy9hIBAECBAgQIECAQFLABTwJJYxAQwHnu2HRbJlAQsDZTiAVhHCPUQ0tYyMRBAgQIECAAAECSQEX8CSUMAINBZzvhkWzZQIJAWc7gVQQwj1GNbSMjUQQIECAAAECBAgkBVzAk1DCCDQUGOf78fHx8vLychlvezDQA2v0wDjTz8/Pr2e64VNT2y2P8/P09MT9gwoaWn6A40MECBAgQIAAAQK3CbiA3+YlmkAngXG+Hx4eXocb4xttDwZ6YI0eGP8zYpztcca93E/AnSm2NrSMjUQQIECAAAECBAgkBVzAk1DCCDQVGGfcg4EeWLMHmj4ttd22O1NcOkPL2EgEAQIECBAgQIBAUsAFPAkljAABAgQIENhawJ0pLr+hZWwkggABAgQIECBAICngAp6EEkaAAAECBAhsLeDOFJff0DI2EkGAAAECBAgQIJAUcAFPQgkjQIAAAQIEthZwZ4rLb2gZG4kgQIAAAQIECBBICriAJ6GEESBAgAABAlsLuDPF5Te0jI1EECBAgAABAgQIJAVcwJNQwggQIECAAIGtBdyZ4vIbWsZGIggQIECAAAECBJICLuBJKGEECBAgQIDA1gLuTHH5DS1jIxEECBAgQIAAAQJJARfwJJQwAgQIECBAYGsBd6a4/IaWsZEIAgQIECBAgACBpIALeBJKGAECBAgQILC1gDtTXH5Dy9hIBAECBAgQIECAQFLABTwJJYwAAQIECBDYWsCdKS6/oWVsJIIAAQIECBAgQCAp4AKehBJGgAABAgQIbC3gzhSX39AyNhJBgAABAgQIECCQFHABT0IJI0CAAAECBLYWcGeKy29oGRuJIECAAAECBAgQSAq4gCehhBEgQIAAAQJbC7gzxeU3tIyNRBAgQIAAAQIECCQFXMCTUMIIECBAgACBrQXcmeLyG1rGRiIIECBAgAABAgSSAi7gSShhBAgQIECAwNYC7kxx+Q0tYyMRBAgQIECAAAECSQEX8CSUMAIECBAgQKC9wD//8z9f3j5uScidKdYytIyNRBAgQIAAAQIECCQFXMCTUMIIECBAgACBlgJ/+Zd/efnd3/3dy5cvX959/OIXv3gdZn6UoDvTRzr//2OGlrGRCAIECBAgQIAAgaSAC3gSShgBAgQIECDQSmD8ROXbQeUYXI7h5NvH18PMMeB878Wd6T2ZH99vaPmjhbcIECBAgAABAgQ+KeAC/klAn05gM4HxnLH7Y7OSS5dAW4HrQHIMKaOXv/3bv/2/AecYdn7rxZ3pWyq/+T5Dy9/08CcCBAgQIECAAIFPCLiAfwLPpxLYTGA8Xzw8PFweHx8vT09P2z2en59f8x8OXggQOLfA9acsx+Ay+zJ+ynL8ZOZ7P23pzhRLGlrGRiIIECBAgAABAgSSAi7gSShhBAi8/oTlGNy9vLxs+dOWI+8xsDW0dBgInF/g+pOTmZ+yvGYTfY4701Xq/deGlu/b+AgBAgQIECBAgMCNAi7gN4IJJ7CxwO7PF7vnv3HrS72hwPf8pOUYcPpJy88V29Dyc34+mwABAgQIECBA4I2Ab8LfYJzsTbU5WUFs5/UnDMdfCx+9ueOLM7lj1eXcWeD6Oy3H6/d+T+U1v+tfDR9Dy/diPQdctd5/bWj5vo2PECBAgAABAgQI3CjgAn4j2B3D1eaO2L5USmD3ntw9/1STCCJwMoHr4PL6r4iPP799XN9/fT3+ivh7L54D3pP58f2Glj9aeIsAAQIECBAgQOCTAi7gnwQs/HS1KcS19HcJ7N6Tu+f/XU3jkwicQGAMIr8eXl6HlOP1+Nh7//jO2+17Dnir8e23DS2/7eK9BAgQIECAAAEC3yHgAv4daHf6FLW5E7QvkxbYvSd3zz/dKAIJLCrgOSAurKFlbCSCAAECBAgQIEAgKeACnoQ6IExtDkD3JT8U2L0nd8//w+bwQQJNBMbvq3z7uGXbngNiLUPL2EgEAQIECBAgQIBAUsAFPAl1QJjaHIDuS34osHtP7p7/h83hgwROLDD+6vdHfz18/BXx8S+Hv/cP8FxT8xxwlXj/taHl+zY+QoAAAQIECBAgcKOAC/iNYHcMV5s7YvtSKYHde3L3/FNNIojAiQTGEPLr3105hpNvH18PMz/63ZaeA+LiGlrGRiIIECBAgAABAgSSAi7gSagDwtTmAHRf8kOB3Xty9/w/bA4fJHBCgetAcgwpo5fxj/VcB5zv/cSl54BI8XIxtIyNRBAgQIAAAQIECCQFXMCTUAeEqc0B6L7khwK79+Tu+X/YHD5I4GQC15+yHIPL7Mv4KcsxuHzvpy09B8SShpaxkQgCBAgQIECAAIGkgAt4EuqAMLU5AN2X/FBg957cPf8Pm8MHCZxM4PqTk5mfsrxuPfoczwFXqfdfG1q+b+MjBAgQIECAAAECNwq4gN8Idsdwtbkjti+VEti9J3fPP9UkggicROB7ftJyDDj9pOXnCmho+Tk/n02AAAECBAgQIPBGwDfhbzBO9qbanKwgtnPZvSd3z98RINBN4Po7Lcfr935P5TWn618NH0PL92I9B1y13n9taPm+jY8QIECAAAECBAjcKOACfiPYHcPV5o7YvlRKYPee3D3/VJMIInAygevg8vqP7Iw/v31c3399Pf6K+HsvngPek/nx/e2Glo+Pj5eXl5fX/ys3CuzBQA/oAT2gB/SAHtAD5+mBcU8b97VRk91ezt6H19p0uEvv1ju75jvOzNPT05bPF6Pmu+e/a9/Lu7/AGER+Pby8DinH6/Gx9/7xnbfZew54q/Htt1sNLccF67d+67cuP/zww+t/3MZ/4DwY6AE9oAf0gB7QA3rgPD0w7mnjvjbubTu9jG88Hh4eXge2Z+3H5+fn1z2O12ff4/D0sr7A7t+w757/+h0uQwIfC3gO+NhnfLTV0HIU1E9anucnKUY9PBjoAT2gB/SAHtADb3vg+tN84307vYx8xzDwzD/FeK1Nhz3u1j87nZW3uY46jwH6rvXePf+3veBtAl0Fxu+rfPu4JQ/PAbFWu6Hlzv9Ri8spggABAgQIECBwrMCuF/AOedvjsWfDV/+pQIee/Omu571n9/znSVqJwH0Fxl/9/uivh4+/Ij7+5fD3/gGe6249B1wl3n9taPm+jY8QIECAAAECBAjcKLDrBbxD3vZ4YzMLLxfo0JOVCGfPf+zPYy+Dyn5fYe0xhPz6d1eO4eTbx9fDzI9+t+XZnwPOUDNDyzNUwR4IECBAgAABAosI7HoB75C3PS5yyBZKo0NPVnKfOf+xt7P/nt6z/m7ejvu6/s7jUXcv7wtcB5JjSBm9jH+s5zrgfO8nLs/8HBDld6+PG1reS9rXIUCAAAECBAhsILDrBbxD3va4wQFslmKHnqwkPXP+Y29n/z29Y48ecwyuv/N4eHr5tsD1pyzH4DL7Mn7Kcgwu3/tpy+HtVyB+rGlo+bGPjxIgQIAAAQIECNwgsOsFvEPe9nhDIwu9i0CHnqyEOHP+Z95bZU12XVu948pff3Iy81OW19Wiz+F+lXr/taHl+zY+QoAAAQIECBAgcKPArhfwDnnb443NLLxcoENPViKcOf8z762yJruurd5x5b/nJy3HgNNPWsa2H0UYWn6k42MECBAgQIAAAQI3Cez6jU+HvO3xplYWfAeBDj1ZyXDm/M+8t8qa7Lq2eucqf/2dluP1e7+n8rrS9a+Gj6Hle7Hcr1rvvza0fN/GRwgQIECAAAECBG4U2PUC3iFve7yxmYWXC3ToyUqEM+d/5r1V1mTXtdU7X/nr4PL6j+yMP799XN9/fT3+ivh7L9zfk/nx/YaWP1p4iwABAgQIECBA4JMCu17AO+Rtj59sbp8+XaBDT05P+s2CZ87/zHt7Q+jNSQLqfRvkGER+Pby8DinH6/Gx9/7xnbdfiftbjW+/bWj5bRfvJUCAAAECBAgQ+A6BXS/gHfK2x+9oaJ9SKtChJysBzpz/mfdWWZNd11bvYyrPPXY3tIyNRBAgQIAAAQIECCQFdr2Ad8jbHpNNLOxuAh16shLjzPmfeW+VNdl1bfU+pvLcY3dDy9hIBAECBAgQIECAQFJg1wt4h7ztMdnEwu4m0KEnKzHOnP+Z91ZZk13XVu95lR//6M57//DO11+F+9ciP/2zoeVPTbyHAAECBAgQIEDgOwV2vYB3yNsev7OpfVqZQIeeLEv+crmcOf8z762yJruurd63VX4MJcfvtXw7nBx/fvt7Lcfb0e+15B67G1rGRiIIECBAgAABAgSSArtewDvkbY/JJhZ2N4EOPVmJceb8z7y3yprsurZ65yv/9T/A84tf/OJ1eHkdWI4/j8fbP7+3Ovf3ZH58v6HljxbeIkCAAAECBAgQ+KTArhfwDnnb4yeb26dPF+jQk9OTfrPgmfM/897eEHpzkoB65yCvA8vxevxk5dvh5BhSvv3Jy/H2dXD59v1vvxL3txrfftvQ8tsu3kuAAAECBAgQIPAdArtewDvkbY/f0dA+pVSgQ09WApw5/zPvrbImu66t3nHlr0PIMbB8+3IdXI7XX7+Mvx4+Bpfv/TVx7l+L/fTPhpY/NfEeAgQIECBAgACB7xTY9QLeIW97/M6m9mllAh16six5v9OyktbaNwrsfhYzXNffWfn1cPL6/m8NJq8f+/pzrl+P+1Xi/deGlu/b+AgBAgQIECBAgMCNArtewDvkbY83NrPwcoEOPVmJcOb8z7y3yprsurZ6x5W/DiC//knL8ROY42Pj8fXL9SctDS2/lsn/2dAybyWSAAECBAgQIEAgENj1G58Oedtj0Lw+fHeBDj1ZiXLm/M+8t8qa7Lq2eucqf/0dld8aUH69wvWvk4/PeS+e+9dqP/2zoeVPTbyHAAECBAgQIEDgOwV2vYB3yNsev7OpfVqZQIeeLEveXw+vpLX2jQK7n8Us1xg+XgeX7/305FgrfwGxqQAAIABJREFUG8c9lje0jI1EECBAgAABAgQIJAV2vYB3yNsek00s7G4CHXqyEuPM+Z95b5U12XVt9c5XfvwE5RhYZoaW3/o9l2+/Eve3Gt9+29Dy2y7eS4AAAQIECBAg8B0Cu17AO+Rtj9/R0D6lVKBDT1YCnDn/M++tsia7rq3ex1See+xuaBkbiSBAgAABAgQIEEgK7HoB75C3PSabWNjdBDr0ZCXGmfM/894qa7Lr2up9TOW5x+6GlrGRCAIECBAgQIAAgaTArhfwDnnbY7KJhd1NoENPVmKcOf8z762yJruurd7HVJ577G5oGRuJIECAAAECBAgQSArsegHvkLc9JptY2N0EOvRkJcaZ8z/z3iprsuva6n1M5bnH7oaWsZEIAgQIECBAgACBpMCuF/AOedtjsomF3U2gQ09WYpw5/zPvrbImu66t3sdUnnvsbmgZG4kgQIAAAQIECBBICux6Ae+Qtz0mm1jY3QQ69GQlxpnzP/PeKmuy69rqfUzlucfuhpaxkQgCBAgQIECAAIGkwK4X8A5522OyiYXdTaBDT1ZinDn/M++tsia7rq3ex1See+xuaBkbiSBAgAABAgQIEEgK7HoB75C3PSabWNjdBDr0ZCXGmfM/894qa7Lr2up9TOW5x+6GlrGRCAIECBAgQIAAgaTArhfwXfNOtkU6jGOaaonA3et95vzPvLclmv9kSaj3MQXhHrsbWsZGIggQIECAAAECBJICu17Ad8072RbpMI5pqiUCd6/3mfM/896WaP6TJaHexxSEe+xuaBkbiSBAgAABAgQIEEgK7HoB3zXvZFukwzimqZYI3L3eZ87/zHtbovlPloR6H1MQ7rG7oWVsJIIAAQIECBAgQCApsOsFfNe8k22RDuOYploicPd6nzn/M+9tieY/WRLqfUxBuMfuhpaxkQgCBAgQIECAAIGkwK4X8F3zTrZFOoxjmmqJwN3rfeb8z7y3JZr/ZEmo9zEF4R67G1rGRiIIECBAgAABAgSSArtewHfNO9kW6TCOaaolAnev95nzP/Pelmj+kyWh3scUhHvsbmgZG4kgQIAAAQIECBBICux6Ad8172RbpMM4pqmWCNy93mfO/8x7W6L5T5aEeh9TEO6xu6FlbCSCAAECBAgQIEAgKbDrBbxD3vaYbGJhdxPo0JOVGGfO/8x7q6zJrmur9zGV5x67G1rGRiIIECBAgAABAgSSArtewDvkbY/JJhZ2N4EOPVmJceb8z7y3yprsurZ6H1N57rG7oWVsJIIAAQIECBAgQCApsMIFfORw6+Pl5eXy/Px8Ga9v/dwZ8R+V57r+2Nvj4+NP9pj53Osa1a9nOH6Uj4+dS2D009PT0+uZOdfO7rObM+d/5r3dpzp7fRX1Pqbe3GN3Q8vYSAQBAgQIECBAgEBSYIUL+Bii3PoYw8CHh4fXoeCtnzsj/qPyXNcfQ9Wxx/H6+r7x+qOXt3H3eHuG40f5+Ni5BFZ4vviM6JnzP/PePmPuc78toN7fdql+L/dY2NAyNhJBgAABAgQIECCQFFjhAj5yuPUx4ycEb/2ab+M/Ks81zk9afqTkY0cIjN4cw/DxeseXM+d/5r3t2CvVOat3tfC31+f+bZe37zW0fKvhbQIECBAgQIAAgU8J7HoB75C3PX6qtX1ygUCHnixI+/+WPHP+Z97b/wF6Y5qAek+jvGkh7jGXoWVsJIIAAQIECBAgQCApsOsFvEPe9phsYmF3E+jQk5UYZ87/zHurrMmua6v3MZXnHrsbWsZGIggQIECAAAECBJICu17AO+Rtj8kmFnY3gQ49WYlx5vzPvLfKmuy6tnofU3nusbuhZWwkggABAgQIECBAICmw6wV817yTbZEO45imWiJw93qfOf8z722J5j9ZEup9TEG4x+6GlrGRCAIECBAgQIAAgaTArhfwXfNOtkU6jGOaaonA3et95vzPvLclmv9kSaj3MQXhHrsbWsZGIggQIECAAAECBJICu17Ad8072RbpMI5pqiUCd6/3mfM/896WaP6TJaHexxSEe+xuaBkbiSBAgAABAgQIEEgK7HoB3zXvZFukwzimqZYI3L3eZ87/zHtbovlPloR6H1MQ7rG7oWVsJIIAAQIECBAgQCApsOsFfNe8k22RDuOYploicPd6nzn/M+9tieY/WRLqfUxBuMfuhpaxkQgCBAgQIECAAIGkwK4X8F3zTrZFOoxjmmqJwN3rfeb8z7y3JZr/ZEmo9zEF4R67G1rGRiIIECBAgAABAgSSArtewHfNO9kW6TCOaaolAnev95nzP/Pelmj+kyWh3scUhHvsbmgZG4kgQIAAAQIECBBICux6Ae+Qtz0mm1jY3QQ69GQlxpnzP/PeKmuy69rqfUzlucfuhpaxkQgCBAgQIECAAIGkwK4X8A5522OyiYXdTaBDT1ZinDn/M++tsia7rq3ex1See+xuaBkbiSBAgAABAgQIEEgK7HoB75C3PSabWNjdBDr0ZCXGmfM/894qa7Lr2up9TOW5x+6GlrGRCAIECBAgQIAAgaTArhfwDnnbY7KJhd1NoENPVmKcOf8z762yJruurd7HVJ577G5oGRuJIECAAAECBAgQSArsegHvkLc9JptY2N0EOvRkJcaZ8z/z3iprsuva6n1M5bnH7oaWsZEIAgQIECBAgACBpMCuF/AOedtjsomF3U2gQ09WYpw5/zPvrbImu66t3sdUnnvsbmgZG4kgQIAAAQIECBBICux6Ae+Qtz0mm1jY3QQ69GQlxpnzP/PeKmuy69rqfUzlucfuhpaxkQgCBAgQIECAAIGkwK4X8A5522OyiYXdTaBDT1ZinDn/M++tsia7rq3ex1See+xuaBkbiSBAgAABAgQIEEgK7HoB75C3PSabWNjdBDr0ZCXGmfM/894qa7Lr2up9TOW5x+6GlrGRCAIECBAgQIAAgaTArhfwDnnbY7KJhd1NoENPVmKcOf8z762yJruurd7HVJ577G5oGRuJIECAAAECBAgQSArsegHvkLc9JptY2N0EOvRkJcaZ8z/z3iprsuva6n1M5bnH7oaWsZEIAgQIECBAgACBpMCuF/AOedtjsomF3U2gQ09WYpw5/zPvrbImu66t3sdUnnvsbmgZG4kgQIAAAQIECBBICux6Ae+Qtz0mm1jY3QQ69GQlxpnzP/PeKmuy69rqfUzlucfuhpaxkQgCBAgQIECAAIGkwK4X8A5522OyiYXdTaBDT1ZinDn/M++tsia7rq3ex1See+xuaBkbiSBAgAABAgQIEEgK7HoB75C3PSabWNjdBDr0ZCXGmfM/894qa7Lr2up9TOW5x+6GlrGRCAIECBAgQIAAgaTArhfwDnnbY7KJhd1NoENPVmKcOf8z762yJruurd7HVJ577G5oGRuJIECAAAECBAgQSArsegHvkLc9JptY2N0EOvRkJcaZ8z/z3iprsuva6n1M5bnH7oaWsZEIAgQIECBAgACBpMCuF/AOedtjsomF3U2gQ09WYpw5/zPvrbImu66t3sdUnnvsbmgZG4kgQIAAAQIECBBICux6Ae+Qtz0mm1jY3QQ69GQlxpnzP/PeKmuy69rqfUzlucfuhpaxkQgCBAgQIECAAIGkwK4X8A5522OyiYXdTaBDT1ZinDn/M++tsia7rq3ex1See+xuaBkbiSBAgAABAgQIEEgK7HoB75C3PSabWNjdBDr0ZCXGmfM/894qa7Lr2up9TOW5x+6GlrGRCAIECBAgQIAAgaTArhfwDnnbY7KJhd1NoENPVmKcOf8z762yJruurd7HVJ577G5oGRuJIECAAAECBAgQSArsegHvkLc9JptY2N0EOvRkJcaZ8z/z3iprsuva6n1M5bnH7oaWsZEIAgQIECBAgACBpMCuF/AOedtjsomF3U2gQ09WYpw5/zPvrbImu66t3sdUnnvsbmgZG4kgQIAAAQIECBBICux6Ae+Qtz0mm1jY3QQ69GQlxpnzP/PeKmuy69rqfUzlucfuhpaxkQgCBAgQIECAAIGkwK4X8A5522OyiYXdTaBDT1ZinDn/M++tsia7rq3ex1See+xuaBkbiSBAgAABAgQIEEgK7HoB75C3PSabWNjdBDr0ZCXGmfM/894qa7Lr2up9TOW5x+6GlrGRCAIECBAgQIAAgaTArhfwDnnbY7KJhd1NoENPVmKcOf8z762yJruurd7HVJ577G5oGRuJIECAAAECBAgQSArsegHvkLc9JptY2N0EOvRkJcaZ8z/z3iprsuva6n1M5bnH7u2Glo+Pj5eXl5fLKK4HAz2gB/SAHtADekAPnKsHxj3t+fn59Z4WX0XXiRh9OPI+8z117O3sd+ld+2edk3BbJuPcPD09bfd8cVU6c/4dntPGHj3mGHjuvZ7K+74+83PAfSXe/2rthpYPDw+XL1++vP7HbfwHzoOBHtADekAP6AE9oAfO0wNjKDbua+MivtPLyHfkPfI/az+OoerY43h91j3u2j87nZW3ue7+DfuZ8+/wnHbW57GO+/Lc+/aZ6X5vn/k54H4KH3+lVkPLkcooqgcDPaAH9IAe0AN6QA+cuwc+voKu+dGz92SHn7S8Gq7ZIbL6WmDUewx4xusdX86e//U8en3u/97OrM+O5/DInM/+HHCkzfVrtxtaXjfuNQECBAgQIECAAAECeQHfHOWtRN5HYPee3D3/+3SZr0LgvAKeA+LaGFrGRiIIECBAgAABAgQItBfwzVH7Ei6XwO49uXv+yzW0hAjcKOA5IAYztIyNRBAgQIAAAQIECBBoL+Cbo/YlXC6B3Xty9/yXa2gJEbhRwHNADGZoGRuJIECAAAECBAgQINBewDdH7Uu4XAK79+Tu+S/X0BIicKOA54AYzNAyNhJBgAABAgQIECBAoL2Ab47al3C5BHbvyd3zX66hJUTgRgHPATGYoWVsJIIAAQIECBAgQIBAewHfHLUv4XIJ7N6Tu+e/XENLiMCNAp4DYrB2Q0tFjYsqggABAgQIECBAgMDXAu7RX4v489ECu/fk7vkf3X++PoGjBTwHxBUwtIyNRBAgQIAAAQIECBBoL+Cbo/YlXC6B3Xty9/yXa2gJEbhRwHNADGZoGRuJIECAAAECBAgQINBewDdH7Uu4XAK79+Tu+S/X0BIicKOA54AYzNAyNhJBgAABAgQIECBAoL2Ab47al3C5BHbvyd3zX66hJUTgRgHPATGYoWVsJIIAAQIECBAgQIBAewHfHLUv4XIJ7N6Tu+e/XENLiMCNAp4DYjBDy9hIBAECBAgQIECAAIH2Ar45al/C5RLYvSd3z3+5hpYQgRsFPAfEYIaWsZEIAgQIECBAgAABAu0FfHPUvoTLJbB7T+6e/3INLSECNwp4DojBDC1jIxEECBAgQIAAAQIECBAgMFlg92/Yd89/cjtZjkA7Ac8BcckMLWMjEQQIECBAgAABAgQIECAwWWD3b9h3z39yO1mOQDsBzwFxyQwtYyMRBAgQIECAAAECBAgQIDBZYPdv2HfPf3I7WY5AOwHPAXHJDC1jIxEECBAgQIAAAQIECBAgMFlg92/Yd89/cjtZjkA7Ac8BcckMLWMjEQQIECBAgAABAgQIECAwWWB8w/78/Hx5eXm5jLd3e4y8R/4jby8ECOwnMM7+09OT54APSm9o+QGODxEgQIAAAQIECBAgQIBAjcD4hv3h4eHy+Pj4+o37+OZ9p8fIe+RvaFnTX1YlcHYBQ8u4QoaWsZEIAgQIECBAgAABAgQIECgQGN+07/4oYLUkAQINBAwt4yIZWsZGIggQIECAAAECBAgQIECAAAECBAhMEzC0jCkNLWMjEQQIECBAgAABAgQIECBAgAABAgSmCRhaxpSGlrGRCAIECBAgQIAAAQIECBAgQIAAAQLTBAwtY0pDy9hIBAECBAgQIECAAAECBAgQIECAAIFpAoaWMaWhZWwkggABAgQIECBAgAABAgQIECBAgMA0AUPLmNLQMjYSQYAAAQIECBAgQIAAAQIECBAgQGCagKFlTGloGRuJIECAAAECBAgQIECAAAECBAgQIDBNwNAypjS0jI1EECBAgAABAgQIECBAgAABAgQIEJgmYGgZUxpaxkYiCBAgQIAAAQIECBAgQIAAAQIECEwTMLSMKQ0tYyMRBAgQIECAAAECBAgQIECAAAECBKYJGFrGlIaWsZEIAgQIECBAgAABAgQIECBAgAABAtMEDC1jSkPL2EgEAQIECBAgQIAAAQIECBAgQIAAgWkChpYxpaFlbCSCAAECBAgQIECAAAECBAgQIECAwDQBQ8uY0tAyNhJBgAABAgQIECBAgAABAgQIECBAYJqAoWVMaWgZG4kgQIAAAQIECBAgQIAAAQIECBAgME3A0DKmNLSMjUQQIECAAAECBAgQIECAAAECBAgQmCZgaBlTGlrGRiIIECBAgAABAgQIECBAgAABAgQITBMwtIwpDS1jIxEECBAgQIAAAQIECBAgQIAAAQIEpgkYWsaUhpaxkYgDBcYh9mCgB/SAHtADekAP6AE9oAf0gB7QA3pAD4weWOVl5PL09PQ681glp9l5GFrOFrXeNIFxgB8eHi7Pz8+vB3kcZg8GekAP6AE9oAf0gB7QA3pAD+gBPaAH9uuBMRsYM4JVBpeGlvH4yNAyNhJxkMA4wI+Pj5eXlxc/beknTvWAHtADekAP6AE9oAf0gB7QA3pAD2zcA2M2MGYEhpYHDWkO+LKGlgeg+5I5Af/XIeckigABAgQIECBAgAABAgQIrC6w2oxgtXwq+s/QskLVmlMEHOApjBYhQIAAAQIECBAgQIAAAQLtBVabEayWT0WDGVpWqFpzioADPIXRIgQIECBAgAABAgQIECBAoL3AajOC1fKpaDBDywpVa04RcICnMFqEAAECBAgQIECAAAECBAi0F1htRrBaPhUNZmhZoWrNKQIO8BRGixAgQIAAAQIECBAgQIAAgfYCq80IVsunosEMLStUrTlFwAGewmgRAgQIECBAgAABAgQIECDQXmC1GcFq+VQ0mKFlhao1pwg4wFMYLUKAAAECBAgQIECAAAECBNoLrDYjWC2figYztKxQteYUAQd4CqNFCBAgQIAAAQIECBAgQIBAe4HVZgSr5VPRYIaWFarWnCLgAE9htAgBAgQIECBAgAABAgQIEGgvsNqMYLV8KhrM0LJC1ZpTBBzgKYwWIUCAAAECBAgQIECAAAEC7QVWmxGslk9FgxlaVqhac4qAAzyF0SIECBAgQIAAAQIECBAgQKC9wGozgtXyqWgwQ8sKVWtOEXCApzBahAABAgQIECBAgAABAgQItBdYbUawWj4VDWZoWaFqzSkCDvAURosQIECAAAECBAgQIECAAIH2AqvNCFbLp6LBDC0rVK05RcABnsJoEQIECBAgQIAAAQIECBAg0F5gtRnBavlUNJihZYWqNacIOMBTGC1CgAABAgQIECBAgAABAgTaC6w2I1gtn4oGM7SsULXmFAEHeAqjRQgQIECAAAECBAgQIECAQHuB1WYEq+VT0WCGlhWq1pwi4ABPYbQIAQIECBAgQIAAAQIECBBoL7DajGC1fCoazNCyQtWaUwQc4CmMFiFAgAABAgQIECBAgAABAu0FVpsRrJZPRYMZWlaoWnOKgAM8hdEiBAgQIECAAAECBAgQIECgvcBqM4LV8qloMEPLClVrThFwgKcwWoQAAQIECBAgQIAAAQIECLQXWG1GsFo+FQ1maFmhas0pAg7wFEaLECBAgAABAgQIECBAgACB9gKrzQhWy6eiwQwtK1StOUXAAZ7CaBECBAgQIECAAAECBAgQINBeYLUZwWr5VDSYoWWFqjWnCDjAUxgtQoAAAQIECBAgQIAAAQIE2gusNiNYLZ+KBjO0rFC15hQBB3gKo0UIECBAgAABAgQIECBAgEB7gdVmBKvlU9FghpYVqtacIuAAT2G0CAECBAgQIECAAAECBAgQaC+w2oxgtXwqGszQskLVmlMEHOApjBYhQIAAAQIECBAgQIAAAQLtBVabEayWT0WDGVpWqFpzioADPIXRIgQIECBAgAABAgQIECBAoL3AajOC1fKpaDBDywpVa04RcICnMFqEAAECBAgQIECAAAECBAi0F1htRrBaPhUNZmhZoWrNKQIO8BRGixAgQIAAAQIECBAgQIAAgfYCq80IVsunosEMLStUrTlFwAGewmgRAgQIECBAgAABAgQIECDQXmC1GcFq+VQ0mKFlhao1pwg4wFMYLUKAAAECBAgQIECAAAECBNoLrDYjWC2figYztKxQteYUAQd4CqNFCBAgQIAAAQIECBAgQIBAe4HVZgSr5VPRYIaWFarWnCLgAE9htAgBAgQIECBAgAABAgQIEGgvsNqMYLV8KhrM0LJC1ZpTBBzgKYwWIUCAAAECBAgQIECAAAEC7QVWmxGslk9FgxlaVqhac4qAAzyF0SIECBAgQIAAAQIECBAgQKC9wGozgtXyqWgwQ8sKVWtOEXCApzBahAABAgQIECBAgAABAgQItBdYbUawWj4VDWZoWaFqzSkCDvAURosQIECAAAECBAgQIECAAIH2AqvNCFbLp6LBDC0rVK05RcABnsJoEQIECBAgQIAAAQIECBAg0F5gtRnBavlUNJihZYWqNacIOMBTGC1CgAABAgQIECBAgAABAgTaC6w2I1gtn4oGM7SsULXmFAEHeAqjRQgQIECAAAECBAgQIECAQHuB1WYEq+VT0WCGlhWq1pwi4ABPYbQIAQIECBAgQIAAAQIECBBoL7DajGC1fCoazNCyQtWaUwQc4CmMFiFAgAABAgQIECBAgAABAu0FVpsRrJZPRYMZWlaoWnOKgAM8hdEiBAgQIECAAAECBAgQIECgvcBqM4LV8qloMEPLClVrThFwgKcwWoQAAQIECBAgQIAAAQIECLQXWG1GsFo+FQ1maFmhas0pAg7wFEaLECBAgAABAgQIECBAgACB9gKrzQhWy6eiwQwtK1StOUXAAZ7CaBECBAgQIECAAAECBAgQINBeYLUZwWr5VDSYoWWFqjWnCDjAUxgtQoAAAQIECBAgQIAAAQIE2gusNiNYLZ+KBjO0rFC15hQBB3gKo0UIECBAgAABAgQIECBAgEB7gdVmBKvlU9FghpYVqtacIuAAT2G0CAECBAgQIECAAAECBAgQaC+w2oxgtXwqGszQskLVmlMEHOApjBYhQIAAAQIECBAgQIAAAQLtBVabEayWT0WDGVpWqFpzioADPIXRIgQIECBAgAABAgQIECBAoL3AajOC1fKpaDBDywpVa04RcICnMFqEAAECBAgQIECAAAECBAi0F1htRrBaPhUNZmhZoWrNKQIO8BRGixAgQIAAAQIECBAgQIAAgfYCq80IVsunosEMLStUrTlFwAGewmgRAgQIECBAgAABAgQIECDQXmC1GcFq+VQ0mKFlhao1pwg4wFMYLUKAAAECBAgQIECAAAECBNoLrDYjWC2figYztKxQteYUAQd4CqNFCBAgQIAAAQIECBAgQIBAe4HVZgSr5VPRYIaWFarWnCLgAE9htAgBAgQIECBAgAABAgQIEGgvsNqMYLV8KhrM0LJC1ZpTBBzgKYwWIUCAAAECBAgQIECAAAEC7QVWmxGslk9FgxlaVqhac4qAAzyF0SIECBAgQIAAAQIECBAgQKC9wGozgtXyqWgwQ8sKVWtOEXCApzBahAABAgQIECBAgAABAgQItBdYbUawWj4VDWZoWaFqzSkCDvAURosQIECAAAECBAgQIECAAIH2AqvNCFbLp6LBDC0rVK05RcABnsJoEQIECBAgQIAAAQIECBAg0F5gtRnBavlUNJihZYWqNacIOMBTGC1CgAABAgQIECBAgAABAgTaC6w2I1gtn4oGM7SsULXmFAEHeAqjRQgQIECAAAECBAgQIECAQHuB1WYEq+VT0WCGlhWq1pwi4ABPYbQIAQIECBAgQIAAAQIECBBoL7DajGC1fCoazNCyQtWaUwQc4CmMFiFAgAABAgQIECBAgAABAu0FVpsRrJZPRYMZWlaoWnOKgAM8hdEiBAgQIECAAAECBAgQIECgvcBqM4LV8qloMEPLClVrThFwgKcwWoQAAQIECBAgQIAAAQIECLQXWG1GsFo+FQ1maFmhas0pAg7wFEaLECBAgAABAgQIECBAgACB9gKrzQhWy6eiwQwtK1StOUXAAZ7CaBECBAgQIECAAAECBAgQINBeYLUZwWr5VDSYoWWFqjWnCDjAUxgtQoAAAQIECBAgQIAAAQIE2gusNiNYLZ+KBjO0rFC15hQBB3gKo0UIECBAgAABAgQIECBAgEB7gdVmBKvlU9FghpYVqtacIuAAT2G0CAECBAgQIECAAAECBAgQaC+w2oxgtXwqGszQskLVmlMEHOApjBYhQIAAAQIECBAgQIAAAQLtBVabEayWT0WDGVpWqFpzioADPIXRIgQIECBAgAABAgQIECBAoL3AajOC1fKpaDBDywpVa04RcICnMFqEAAECBAgQIECAAAECBAi0F1htRrBaPhUNZmhZoWrNKQIO8BRGixAgQIAAAQIECBAgQIAAgfYCq80IVsunosEMLStUrTlFwAGewmgRAgQIECBAgAABAgQIECDQXmC1GcFq+VQ0mKFlhao1pwg4wFMYLUKAAAECBAgQIECAAAECBNoLrDYjWC2figYztKxQteYUAQd4CqNFCBAgQIAAAQIECBAgQIBAe4HVZgSr5VPRYIaWFarWnCLgAE9htAgBAgQIECBAgAABAgQIEGgvsNqMYLV8KhrM0LJC1ZpTBBzgKYwWIUCAAAECBAgQIECAAAEC7QVWmxGslk9FgxlaVqhac4qAAzyF0SIECBAgQIAAAQIECBAgQKC9wGozgtXyqWgwQ8sKVWtOEXCApzBahAABAgQIECBAgAABAgQItBdYbUawWj4VDWZoWaFqzSkCDvAURosUI6gSAAAgAElEQVQQIECAAAECBAgQIECAAIH2AqvNCFbLp6LBDC0rVK05RcABnsJoEQIECBAgQIAAAQIECBAg0F5gtRnBavlUNJihZYWqNacIOMBTGC1CgAABAgQIECBAgAABAgTaC6w2I1gtn4oGM7SsULXmFAEHeAqjRQgQIECAAAECBAgQIECAQHuB1WYEq+VT0WCGlhWq1pwi4ABPYbQIAQIECBAgQIAAAQIECBBoL7DajGC1fCoazNCyQtWaUwQc4CmMFiFAgAABAgQIECBAgAABAu0FVpsRrJZPRYMZWlaoWnOKgAM8hdEiBAgQIECAAAECBAgQIECgvcBqM4LV8qloMEPLClVrThFwgKcwWoQAAQIECBAgQIAAAQIECLQXWG1GsFo+FQ1maFmhas0pAg7wFEaLECBAgAABAgQIECBAgACB9gKrzQhWy6eiwQwtK1StOUXAAZ7CaBECBAgQIECAAAECBAgQINBeYLUZwWr5VDSYoWWFqjWnCDjAUxgtQoAAAQIECBAgQIAAAQIE2gusNiNYLZ+KBjO0rFC15hQBB3gKo0UIECBAgAABAgQIECBAgEB7gdVmBKvlU9FghpYVqtacIuAAT2G0CAECBAgQIECAAAECBAgQaC+w2oxgtXwqGszQskLVmlMEHOApjBYhQIAAAQIECBAgQIAAAQLtBVabEayWT0WDGVpWqFpzioADPIXRIgQIECBAgAABAgQIECBAoL3AajOC1fKpaDBDywpVa04RcICnMFqEAAECBAgQIECAAAECBAi0F1htRrBaPhUNZmhZoWrNKQIO8BRGixAgQIAAAQIECBAgQIAAgfYCq80IVsunosEMLStUrTlFwAGewmgRAgQIECBAgAABAgQIECDQXmC1GcFq+VQ0mKFlhao1pwg4wFMYLUKAAAECBAgQIECAAAECBNoLrDYjWC2figYztKxQteYUAQd4CqNFCBAgQIAAAQIECBAgQIBAe4HVZgSr5VPRYIaWFarWnCLgAE9htAgBAgQIECBAgAABAgQIEGgvsNqMYLV8KhrM0LJC1ZpTBBzgKYwWIUCAAAECBAgQIECAAAEC7QVWmxGslk9FgxlaVqhac4qAAzyF0SIECBAgQIAAAQIECBAgQKC9wGozgtXyqWgwQ8sKVWtOEXCApzBahAABAgQIECBAgAABAgQItBdYbUawWj4VDWZoWaFqzSkCDvAURosQIECAAAECBAgQIECAAIH2AqvNCFbLp6LBDC0rVK05RcABnsJoEQIECBAgQIAAAQIECBAg0F5gtRnBavlUNJihZYWqNacIOMBTGC1CgAABAgQIECBAgAABAgTaC6w2I1gtn4oGM7SsULXmFAEHeAqjRQgQIECAAAECBAgQIECAQHuB1WYEq+VT0WCGlhWq1pwi4ABPYbQIAQIECBAgQIAAAQIECBBoL7DajGC1fCoazNCyQtWaUwQc4CmMFiFAgAABAgQIECBAgAABAu0FVpsRrJZPRYMZWlaoWnOKgAM8hdEiBAgQIECAAAECBAgQIECgvcBqM4LV8qloMEPLClVrThFwgKcwWoQAAQIECBAgQIAAAQIECLQXWG1GsFo+FQ1maFmhas0pAg7wFEaLECBAgAABAgQIECBAgACB9gKrzQhWy6eiwQwtK1StOUXAAZ7CaBECBAgQIECAAAECBAgQINBeYLUZwWr5VDSYoWWFqjWnCDjAUxgtQoAAAQIECBAgQIAAAQIE2gusNiNYLZ+KBjO0rFC15hQBB3gKo0UIECBAgAABAgQIECBAgEB7gdVmBKvlU9FghpYVqtacIuAAT2G0CAECBAgQIECAAAECBAgQaC+w2oxgtXwqGszQskLVmlMEHOApjBYhQIAAAQIECBAgQIAAAQLtBVabEayWT0WDGVpWqFpzioADPIXRIgQIECBAgAABAgQIECBAoL3AajOC1fKpaDBDywpVa04RcICnMFqEAAECBAgQIECAAAECBAi0F1htRrBaPhUNZmhZoWrNKQIO8BRGixAgQIAAAQIECBAgQIAAgfYCq80IVsunosEMLStUrTlFwAGewmgRAgQIECBAgAABAgQIECDQXmC1GcFq+VQ0mKFlhao1pwg4wFMYLUKAAAECBAgQIECAAAECBNoLrDYjWC2figYztKxQteYUAQd4CqNFCBAgQIAAAQIECBAgQIBAe4HVZgSr5VPRYIaWFarWnCLgAE9htAgBAgQIECBAgAABAgQIEGgvsNqMYLV8KhrM0LJC1ZpTBBzgKYwWIUCAAAECBAgQIECAAAEC7QVWmxGslk9FgxlaVqhac4qAAzyF0SIECBAgQIAAAQIECBAgQKC9wGozgtXyqWgwQ8sKVWtOEXCApzBahAABAgQIECBAgAABAgQItBdYbUawWj4VDWZoWaFqzSkCDvAURosQIECAAAECBAgQIECAAIH2AqvNCFbLp6LBDC0rVK05RcABnsJoEQIECBAgQIAAAQIECBAg8P/au3/VuI42DsDGnS5CiOAQnFxAwOoskkCMS+dPZXQBgTS+gJQpVARCihRxmzYmagJpUiSEpDKuVJh0jtI4hQUGyzAfI5iP47WknF3NHJ1591kQu5Jm3zPzzDvG/HxkdS8QLSOItp4WDSa0bKGqZhUBB7gKoyIECBAgQIAAAQIECBAgQKB7gWgZQbT1tGgwoWULVTWrCDjAVRgVIUCAAAECBAgQIECAAAEC3QtEywiiradFgwktW6iqWUXAAa7CqAgBAgQIECBAgAABAgQIEOheIFpGEG09LRpMaNlCVc0qAg5wFUZFCBAgQIAAAQIECBAgQIBA9wLRMoJo62nRYELLFqpqVhFwgKswKkKAAAECBAgQIECAAAECBLoXiJYRRFtPiwYTWrZQVbOKgANchVERAgQIECBAgAABAgQIECDQvUC0jCDaelo0mNCyhaqaVQQc4CqMihAgQIAAAQIECBAgQIAAge4FomUE0dbTosGEli1U1awi4ABXYVSEAAECBAgQIECAAAECBAh0LxAtI4i2nhYNJrRsoapmFQEHuAqjIgQIECBAgAABAgQIECBAoHuBaBlBtPW0aDChZQtVNasIOMBVGBUhQIAAAQIECBAgQIAAAQLdC0TLCKKtp0WDCS1bqKpZRcABrsKoCAECBAgQIECAAAECBAgQ6F4gWkYQbT0tGkxo2UJVzSoCDnAVRkUIECBAgAABAgQIECBAgED3AtEygmjradFgQssWqmpWEXCAqzAqQoAAAQIECBAgQIAAAQIEuheIlhFEW0+LBhNatlBVs4qAA1yFURECBAgQIECAAAECBAgQINC9QLSMINp6WjSY0LKFqppVBBzgKoyKECBAgAABAgQIECBAgACB7gWiZQTR1tOiwYSWLVTVrCLgAFdhVIQAAQIECBAgQIAAAQIECHQvEC0jiLaeFg0mtGyhqmYVAQe4CqMiBAgQIECAAAECBAgQIECge4FoGUG09bRoMKFlC1U1qwg4wFUYFSFAgAABAgQIECBAgAABAt0LRMsIoq2nRYMJLVuoqllFwAGuwqgIAQIECBAgQIAAAQIECBDoXiBaRhBtPS0aTGjZQlXNKgIOcBVGRQgQIECAAAECBAgQIECAQPcC0TKCaOtp0WBCyxaqalYRcICrMCpCgAABAgQIECBAgAABAgS6F4iWEURbT4sGE1q2UFWzioADXIVREQIECBAgQIAAAQIECBAg0L1AtIwg2npaNJjQsoWqmlUEHOAqjIoQIECAAAECBAgQIECAAIHuBaJlBNHW06LBhJYtVNWsIuAAV2FUhAABAgQIECBAgAABAgQIdC8QLSOItp4WDSa0bKGqZhUBB7gKoyIECBAgQIAAAQIECBAgQKB7gWgZQbT1tGgwoWULVTWrCDjAVRgVIUCAAAECBAgQIECAAAEC3QtEywiiradFgwktW6iqWUXAAa7CqAgBAgQIECBAgAABAgQIEOheIFpGEG09LRpMaNlCVc0qAg5wFUZFCBAgQIAAAQIECBAgQIBA9wLRMoJo62nRYELLFqpqVhFwgKswKkKAAAECBAgQIECAAAECBLoXiJYRRFtPiwYTWrZQVbOKgANchVERAgQIECBAgAABAgQIECDQvUC0jCDaelo0mNCyhaqaVQQc4CqMihAgQIAAAQIECBAgQIAAge4FomUE0dbTosGEli1U1awi4ABXYVSEAAECBAgQIECAAAECBAh0LxAtI4i2nhYNJrRsoapmFQEHuAqjIgQIECBAgAABAgQIECBAoHuBaBlBtPW0aDChZQtVNasIOMBVGBUhQIAAAQIECBAgQIAAAQLdC0TLCKKtp0WDCS1bqKpZRcABrsKoCAECBAgQIECAAAECBAgQ6F4gWkYQbT0tGkxo2UJVzSoCDnAVRkUIECBAgAABAgQIECBAgED3AtEygoODg7SxsZHys8fpAkLL0118dQYC0f5AmgGpKRAgQIAAAQIECBAgQIAAgS4FomUE0dbToqmEli1U1awi4ABXYVSEAAECBAgQIECAAAECBAh0LxAtI4i2nhYNJrRsoapmFQEHuAqjIgQIECBAgAABAgQIECBAoHuBaBlBtPW0aDChZQtVNasIOMBVGBUhQIAAAQIECBAgQIAAAQLdC0TLCKKtp0WDCS1bqKpZRcABrsKoCAECBAgQIECAAAECBAgQ6F4gWkYQbT0tGkxo2UJVzSoCDnAVRkUIECBAgAABAgQIECBAgED3AtEygmjradFgQssWqmpWEXCAqzAqQoAAAQIECBAgQIAAAQIEuheIlhFEW0+LBhNatlBVs4qAA1yFURECBAgQIECAAAECBAgQINC9QLSMINp6WjSY0LKFqppVBBzgKoyKECBAgAABAgQIECBAgACB7gWiZQTR1tOiwYSWLVTVrCLgAFdhVIQAAQIECBAgQIAAAQIECHQvEC0jiLaeFg0mtGyhqmYVAQe4CqMiBAgQIECAAAECBAgQIECge4FoGUG09bRoMKFlC1U1qwg4wFUYFSFAgAABAgQIECBAgAABAt0LRMsIoq2nRYMJLVuoqllFwAGuwqgIAQIECBAgQIAAAQIECBDoXiBaRhBtPS0aTGjZQlXNKgL5AG9ubqaDg4OUX/tgoAf0gB7QA3pAD+gBPaAH9IAe0AN6YD17IGcDOzs7J9nAWaFDT72R1zM28zhrvdG/LrSMvsMdry//YbOxsXHyh9LW1lbywUAP6AE9oAf0gB7QA3pAD+gBPaAH9MB69kAO+K5cuXJuaNlTb9y5cyddvXo15ef/mnfH0c6Fpi60vBCfN7cW6OlfScx1Pf+1z77bdz2gB/SAHtADekAP6AE9oAf0wHQ9cF4O0dM+/PLLLych7M8///yfP1l63pojf09oGXl3rY0AAQIECBAgQIAAAQIECBAgQGB2Avv7+yeh5XfffTe7uc1lQkLLueyEeRAgQIAAAQIECBAgQIAAAQIECKyFwN7e3kloeevWrfTy5cu1WPOyixRaLitmPAECBAgQIECAAAECBAgQIECAAIELCOzu7p6ElteuXUvPnj27QKW4bxVaxt1bKyNAgAABAgQIECBAgAABAgQIEJiZwPHxcdre3j4JLfMvF3r8+PHMZjiP6Qgt57EPZkGAAAECBAgQIECAAAECBAgQILAGAkdHRynfYZkDy/zx4MGDNVj18ksUWi5v5h0ECBAgQIAAAQIECBAgQIAAAQIEVhI4PDz8f2CZQ8t79+6tVCf6m4SW0XfY+ggQIECAAAECBAgQIECAAAECnQv8888/aWtrK+Xn3h+PHj16JbS8ceNGevHiRe/Lqj5/oWV1UgUJECBAgAABAgQIECBAgAABAgRqCkQKLff3918JLXMY+/Tp05pcIWoJLUNso0UQIECAAAECBAgQIECAAAECBOIKRAot9/b2Xgkt84+IP3z4MO7mrbgyoeWKcN5GgAABAgQIECBAgAABAgQIECAwjUCk0HJ3d/e10PL+/fvTQHZ0FaFlR5tlqgQIECBAgAABAgQIECBAgACBdRSIEloeHx+n7e3t10LLu3fvruO2nrtmoeW5PL5JgAABAgQIECBAgAABAgQIECBw2QJRQsujo6P0/vvvvxZaXr9+PT1//vyymWd1faHlrLbDZAgQIECAAAECBAgQIECAAAECBBYFooSWh4eHaWNjI92+ffvkeWdnJ928efPk9ZMnTxaXvdafCy3XevstngABAgQIECBAgAABAgQIECAwf4EooWWWzms5ODhIm5ubJ8/58/zh8aqA0PJVD58RIECAAAECBAgQIECAAAECBAjMTCBSaJlpo62nRbsILVuoqkmAAAECBAgQIECAAAECBAgQIFBNIFrIF2091TZ6UEhoOcDwkgABAgQIECBAgAABAgQIECBAYH4C0UK+aOtp0TFCyxaqahIgQIAAAQIECBAgQIAAAQIECFQTiBbyRVtPtY0eFBJaDjC8JECAAAECBAgQIECAAAECBAgQmJ9AtJAv2npadIzQsoWqmgQIECBAgAABAgQIECBAgAABAtUEooV80dZTbaMHhYSWAwwvCRAgQIAAAQIECBAgQIAAAQIE5icQLeSLtp4WHSO0bKGqJgECBAgQIECAAAECBAgQIECAQDWBaCFftPVU2+hBIaHlAMNLAgQIECBAgAABAgQIECBAgACB+QlEC/miradFxwgtW6iqSYAAAQIECBAgQIAAAQIECBAgUE0gWsgXbT3VNnpQSGg5wPCSAAECBAgQIECAAAECBAgQIEBgfgLRQr5o62nRMULLFqpqEiBAgAABAgQIECBAgAABAgQIVBOIFvJFW0+1jR4UEloOMLwkQIAAAQIECBAgQIAAAQIECBCYn0C0kC/aelp0jNCyhaqaBAgQIECAAAECBAgQIECAAAEC1QSihXzR1lNtoweFhJYDDC8JECBAgAABAgQIECBAgAABAgTmJyDkm9+etJ6R0LK1sPoECBAgQIAAAQIECBAgQIAAAQIXEhBaXoivyzcLLbvcNpMmQIAAAQIECBAgQIAAAQIECKyPgNByffa6rFRoWSQ8EyBAgAABAgQIECBAgAABAgQIzFJAaDnLbWk6KaFlU17FCRAgQIAAAQIECBAgQIAAAQIELiogtLyoYH/vF1r2t2dmTIAAAQIECHQi8Oabb6YrV66c+nHWEj788MNXxn/++eenDv3111/TcGy+1rfffnvhsacW8EUCBAgQIECAwCULCC0veQMu4fJCy0tAd0kCBAgQIEBgPQTOCizz1097nDU+h5OLj7PGnhZcLjN28To+J0CAAAECBAjMQUBoOYddmHYOp/+Nedo5LHU1TboUl8EECBAgQIDAJQnkOyFzWHjWnZKL0yp3TQ4DyhxAlsAx1yuPXDN/fTi2fC3fcTl8lK+PGTt8n9cECBAgQIAAgTkJyIPmtBvTzEVoOY2zqxAgQIAAAQJrJlACx9PufFykKAHnYuCYx5XQMT+XRwkyy+fluQSfw2suM7bU8UyAAAECBAgQmJuA0HJuO9J+PkLL9sauQIAAAQIECKyhQAkbh3dInsWwSsA5vHOy1C11SsBZwtAxY0sNzwQIECBAgACBOQoILee4K23nJLRs66s6AQIECBAgsKYCw7sey92O+bkEikOWYcBZXpf3LI5fDCaHdRZDymXGDut4TYAAAQIECBCYm4DQcm470n4+Qsv2xq5AgAABAgQIrKHAeb85fPHOxxJwnvWe4fhlgshlxq7hFlkyAQIECBAg0JGA0LKjzao0VaFlJUhlCBAgQIAAAQJFoNzxmO+WzMFheZQQcfHrJbRcvBPztPHla8O6pX5+zjVKyLnM2GENrwkQIECAAAECcxMQWs5tR9rPR2jZ3tgVCBAgQIAAAQL/FyhBYgkW8zdKaDn8WnnD4vjy+eKPjefxJSwtdZYZW67nmQABAgQIECAwRwGh5Rx3pe2chJZtfVUnQIAAAQIECLwisBgs5m+W0DKHjIuPxfHLBJHLjF28rs8JECBAgAABAnMSEFrOaTemmYvQchpnVyFAgAABAgQInAgshpD5i+WX74wJLU97f6FdDCmXGVtqeCZAgAABAgQIzFFAaDnHXWk7J6FlW1/VCRAgQIAAgTUUWAwPhwQloBz+eHcZn38Rz+KjfG84Pv+/lflj8XHaHZvLjF2s53MCBAgQIECAwFwEhJZz2Ynp5vH633anu/ZKV9KkK7F5EwECBAgQIDCxQAkLc+hYHiWAzN/Ld0EOH+U3h5f/jzJ/76zxJZwchpwlDF0MM5cZO5yP1wQIECBAgACBOQnIg+a0G9PMRWg5jbOrECBAgAABAmsmMAwRS4BZnod3TRaW8qPcZczw+bTxw+8PXw9D0lJ7+P3h69PGlvd4JkCAAAECBAjMSUBoOafdmGYuQstpnF2FAAECBAgQWEOBHAqWOyhzWJhfnxcU5uCy3Bn5X+NbjV3DbbJkAgQIECBAoAMBoWUHm1R5ikLLyqDKESBAgAABAgQIECBAgAABAgQI1BUQWtb17KHapYWWf//9d3r+/PnSRpp0aTJvIECAAAECBAgQIECAAAECBAh0LbBqHpSzpydPnnS99nWd/KWElrnRNjY20ltvvZU++eST9PXXX6fffvstjQkyV23Sdd1g6yZAgAABAgQIECBAgAABAgQI9C4wJg968eJFevr0aXr48GG6f/9+unv3brp+/fpJBpXf79GXwKWFlsP/BL683traSm+//fa5QeaYJu1rC8yWAAECBAgQIECAAAECBAgQIEDgPIHFPOjly5fp2bNn6fHjx+nBgwfp3r176caNGylnSyVnKs83b95MQsvzdOf5vQuHlnnTl/04ODh4rYFKIy0+lyDz448/Tl999VX68ccf00cffZRyjVWuu+x7jF9+f5kx0wN6QA/oAT2gB/SAHtADekAP6AE9oAdO64FV8pxcJ7/vzp076YcffkhffvllunXrVrp27dqofGlnZ2elHKnMf56RXvxZXTi0zKHish+bm5ujmmoxwCyfX716NeUay143/0j6su8xfvn9ZcZMD+gBPaAH9IAe0AN6QA/oAT2gB/SAHjitB1bNZi6SJeVrrpIjlfnHjwfnucILh5YldV7mecydlrkx3nnnnfTBBx+kzz77LH3zzTfpp59+Sn/++ac7LVe4u3WZ/THWv4bpAT2gB/SAHtADekAP6AE9oAf0gB7QAy164KJ3Wv7xxx9pf38/7e3tpd3d3bS9vf2fd1zevn3bnZbzzCXPndWFQ8tzq5/xzdz0OeV+77330rvvvps+/fTT9MUXX6Tvv/8+/f777+mvv/5K//7778lvF8//R8Hwkd+bA8387EGAAAECBAgQIECAAAECBAgQIBBf4Kw86Pj4OB0dHaXDw8P06NGj1wLNN954wy/i6bQ9LiW0zFa5mXJT5d/stMzjrCZdpoaxBAgQIECAAAECBAgQIECAAAEC/QiskgcNA81+VmqmReDSQssygWWfV2nSZa9hPAECBAgQIECAAAECBAgQIECAwHwE5EHz2YupZiK0nEradQgQIECAAAECBAgQIECAAAECBFYSEFquxNb1m4SWXW+fyRMgQIAAAQIECBAgQIAAAQIE4gsILePv8eIKhZaLIj4nQIAAAQIECBAgQIAAAQIECBCYlYDQclbbMclkhJaTMLsIAQIECBAgQIAAAQIECBAgQIDAqgJCy1Xl+n1fd6Flv9RmToAAAQIECBAgQIAAAQIECBAgQIDAGAGh5RglYwgQIECAAAECBAgQIECAAAECBAgQmExAaDkZtQsRIECAAAECBAgQIECAAAECBAgQIDBGQGg5RskYAgQIECBAgAABAgQIECBAgAABAgQmExBaTkbtQgQIECBAgAABAgQIECBAgAABAgQIjBEQWo5RMoYAAQIECBAgQIAAAQIECBAgQIAAgckEhJaTUbsQAQIECBAgQIAAAQIECBAgQIAAAQJjBISWY5SMIUCAAAECBAgQIECAAAECBAgQIEBgMgGh5WTULkSAAAECBAgQIECAAAECBAgQIECAwBgBoeUYJWMIECBAgAABAgQIECBAgAABAgQIEJhMQGg5GbULESBAgAABAgQIECBAgAABAgQIECAwRkBoOUbJGAIECBAgQIAAAQIECBAgQIAAAQIEJhMQWk5G7UIECBAgQIAAAQIECBAgQIAAAQIECIwREFqOUTKGAAECBAgQIECAAAECBAgQIECAAIHJBISWk1G7EAECBAgQIECAAAECBAgQIECAAAECYwSElmOUjCFAgAABAgQIECBAgAABAgQIECBAYDIBoeVk1C5EgAABAgQIECBAgAABAgQIECBAgMAYAaHlGCVjCBAgQIAAAQIECBAgQIAAAQIECBCYTEBoORm1CxEgQIAAAQIECBAgQIAAAQIECBAgMEZAaDlGyRgCBAgQIECAAAECBAgQIECAAAECBCYTEFpORu1CBAgQIECAAAECBAgQIECAAAECBAiMERBajlEyhgABAgQIECBAgAABAgQIECBAgACByQSElpNRuxABAgQIECBAgAABAgQIECBAgAABAmMEhJZjlIwhQIAAAQIECBAgQIAAAQIECBAgQGAyAaHlZNQuRIAAAQIECBAgQIAAAQIECBAgQIDAGAGh5RglYwgQIECAAAECBAgQIECAAAECBAgQmExAaDkZtQsRIECAAAECBAgQIECAAAECBAgQIDBGQGg5RskYAgQIECBAgAABAgQIECBAgAABAgQmExBaTkbtQgQIECBAgAABAgQIECBAgAABAgQIjBEQWo5RMoYAAQIECBAgQIAAAQIECBAgQIAAgckEhJaTUbsQAQIECBAgQIAAAQIECBAgQIAAAQJjBISWY5SMIUCAAAECBAgQIECAAAECBAgQIEBgMgGh5WTULkSAAAECBAgQIECAAAECBAgQIECAwBgBoeUYJWMIECBAgAABAgQIECBAgAABAgQIEJhM4EvKtPkAAAAFSURBVH9hzQ/vms5YhAAAAABJRU5ErkJggg==;" parent="1" vertex="1">
          <mxGeometry x="40" y="40" width="1325" height="753" as="geometry" />
        </mxCell>
        <mxCell id="1xBPSwPjP_c7115s2KEv-2" value="&lt;b&gt;&lt;font color=&quot;#82b366&quot;&gt;CONVOYEUR PRINCIPAL&lt;/font&gt;&lt;/b&gt;" style="rounded=0;whiteSpace=wrap;html=1;strokeColor=#82B366;fillColor=#d5e8d4;" parent="1" vertex="1">
          <mxGeometry x="208" y="509" width="1034" height="187" as="geometry" />
        </mxCell>
        <mxCell id="1xBPSwPjP_c7115s2KEv-3" value="&lt;b&gt;&lt;font color=&quot;#82b366&quot;&gt;CONVOYEUR APPROVISIONNEMENT CAMES&lt;/font&gt;&lt;/b&gt;" style="rounded=0;whiteSpace=wrap;html=1;fillColor=#d5e8d4;strokeColor=#82b366;" parent="1" vertex="1">
          <mxGeometry x="84" y="385" width="621" height="84" as="geometry" />
        </mxCell>
        <mxCell id="1xBPSwPjP_c7115s2KEv-14" value="" style="rounded=0;whiteSpace=wrap;html=1;" parent="1" vertex="1">
          <mxGeometry x="84" y="300" width="621" height="84" as="geometry" />
        </mxCell>
        <mxCell id="1xBPSwPjP_c7115s2KEv-15" value="&lt;b&gt;&lt;font color=&quot;#82b366&quot;&gt;CONVOYEUR APPROVISIONNEMENT BUTTES&lt;/font&gt;&lt;/b&gt;" style="rounded=0;whiteSpace=wrap;html=1;fillColor=#d5e8d4;strokeColor=#82b366;" parent="1" vertex="1">
          <mxGeometry x="84" y="215" width="621" height="84" as="geometry" />
        </mxCell>
        <mxCell id="1xBPSwPjP_c7115s2KEv-16" value="" style="rounded=0;whiteSpace=wrap;html=1;" parent="1" vertex="1">
          <mxGeometry x="84" y="130" width="621" height="84" as="geometry" />
        </mxCell>
        <mxCell id="1xBPSwPjP_c7115s2KEv-18" value="&lt;p style=&quot;line-height: 100%;&quot;&gt;&lt;b&gt;&lt;font color=&quot;#6c8ebf&quot;&gt;M&lt;br&gt;A&lt;br&gt;G&lt;br&gt;A&lt;br&gt;S&lt;br&gt;I&lt;br&gt;N&lt;/font&gt;&lt;/b&gt;&lt;br&gt;&lt;/p&gt;" style="rounded=0;whiteSpace=wrap;html=1;fillColor=#dae8fc;strokeColor=#6C8EBF;" parent="1" vertex="1">
          <mxGeometry x="972" y="368" width="65" height="121" as="geometry" />
        </mxCell>
        <mxCell id="1xBPSwPjP_c7115s2KEv-19" value="&lt;b&gt;&lt;font color=&quot;#d79b00&quot;&gt;COLLE&lt;/font&gt;&lt;/b&gt;" style="rounded=0;whiteSpace=wrap;html=1;fillColor=#ffe6cc;strokeColor=#d79b00;" parent="1" vertex="1">
          <mxGeometry x="1075" y="389" width="125" height="80" as="geometry" />
        </mxCell>
        <mxCell id="1xBPSwPjP_c7115s2KEv-20" value="&lt;b&gt;&lt;font color=&quot;#9673a6&quot;&gt;DISTRIBUTEUR VIS&lt;/font&gt;&lt;/b&gt;" style="rounded=0;whiteSpace=wrap;html=1;fillColor=#e1d5e7;strokeColor=#9673A6;" parent="1" vertex="1">
          <mxGeometry x="952" y="183" width="248" height="166" as="geometry" />
        </mxCell>
        <mxCell id="1xBPSwPjP_c7115s2KEv-21" value="&lt;b&gt;&lt;font color=&quot;#666666&quot;&gt;ARMOIRE&lt;/font&gt;&lt;/b&gt;" style="rounded=0;whiteSpace=wrap;html=1;fillColor=#f5f5f5;fontColor=#333333;strokeColor=#666666;" parent="1" vertex="1">
          <mxGeometry x="1015" y="75" width="125" height="84" as="geometry" />
        </mxCell>
        <mxCell id="1xBPSwPjP_c7115s2KEv-22" value="&lt;b&gt;ROBOT&lt;/b&gt;" style="rounded=0;whiteSpace=wrap;html=1;fillColor=none;strokeColor=none;" parent="1" vertex="1">
          <mxGeometry x="766" y="349" width="82" height="21" as="geometry" />
        </mxCell>
        <mxCell id="1xBPSwPjP_c7115s2KEv-24" value="" style="rounded=0;whiteSpace=wrap;html=1;fillColor=#ffe6cc;strokeColor=#D79B00;" parent="1" vertex="1">
          <mxGeometry x="766" y="173" width="12" height="12" as="geometry" />
        </mxCell>
        <mxCell id="1xBPSwPjP_c7115s2KEv-25" value="" style="rounded=0;whiteSpace=wrap;html=1;fillColor=#fff2cc;strokeColor=#D6B656;" parent="1" vertex="1">
          <mxGeometry x="724" y="219" width="12" height="12" as="geometry" />
        </mxCell>
        <mxCell id="1xBPSwPjP_c7115s2KEv-26" value="&lt;b&gt;BUSE ENCOLLAGE&lt;/b&gt;" style="rounded=0;whiteSpace=wrap;html=1;fillColor=none;strokeColor=none;fontColor=#D79B00;" parent="1" vertex="1">
          <mxGeometry x="731" y="140" width="82" height="21" as="geometry" />
        </mxCell>
        <mxCell id="1xBPSwPjP_c7115s2KEv-27" value="&lt;b&gt;POSITIONNEUR&lt;/b&gt;" style="rounded=0;whiteSpace=wrap;html=1;fillColor=none;strokeColor=none;fontColor=#D6B656;" parent="1" vertex="1">
          <mxGeometry x="747" y="214.5" width="82" height="21" as="geometry" />
        </mxCell>
      </root>
    </mxGraphModel>
  </diagram>
</mxfile>
